<?xml version="1.0" encoding="utf-8"?>
<!-- Generator: Adobe Illustrator 23.1.1, SVG Export Plug-In . SVG Version: 6.00 Build 0)  -->
<svg version="1.1" id="Layer_1" xmlns="http://www.w3.org/2000/svg" xmlns:xlink="http://www.w3.org/1999/xlink" x="0px" y="0px"
	 viewBox="0 0 512 512" style="enable-background:new 0 0 512 512;" xml:space="preserve">
<style type="text/css">
	.st0{fill:#F9BD55;}
	.st1{fill:#52565B;}
	.st2{fill:#F98080;}
	.st3{fill:#7D3D1A;}
	.st4{fill:#F4DBCE;}
</style>
<g>
	<path class="st0" d="M481.5,31.3c-35.3-17.6-78.3,13.8-102.9,36.5c-6.2,5.9-15.4,7.3-23.2,3.5c-26.6-13.5-58.8-21.8-97.2-22.5l0,0
		l0,0c-0.2,0-1,0-4.3,0l0,0c-38.4,0.5-70.9,9-97.2,22.5c-7.8,3.8-16.9,2.4-23.2-3.5C109,45.2,65.9,13.7,30.7,31.3
		c-43.9,22,0.5,122.9,32,156.1c-17.1,58.4-7.4,118.4,20.2,142.3c32,27.3,52.4,52.2,64.5,69.1c-1.2-12.1,2.2-24.9,9.7-35.1
		c13.5-18.3,37.7-25.4,58.8-17.5c8-5.5,24.4-6.1,40.3-6.1s32.3,0.5,40.3,6.1c21.1-8,45.1-1,58.8,17.5c7.4,10.2,10.9,23,9.7,35.1
		c12.1-17.1,32.7-42,64.5-69.1c27.8-23.9,37.7-83.8,20.2-142.3C480.8,154.4,525.2,53.3,481.5,31.3L481.5,31.3z"/>
	<ellipse class="st1" cx="325.8" cy="130.2" rx="17.5" ry="19.9"/>
	<ellipse class="st1" cx="255.4" cy="165.3" rx="17.5" ry="19.9"/>
	<path class="st1" d="M274.1,62.1c0,14.5,10.4,26.3,23.2,26.3s23.2-11.8,23.2-26.3c0-0.7,0-2.4,0-4.3c-13.8-3.8-28.7-6.6-44.9-8
		C274.4,53.8,274.1,59.2,274.1,62.1L274.1,62.1z"/>
	<ellipse class="st1" cx="186.1" cy="130.2" rx="17.5" ry="19.9"/>
	<path class="st1" d="M237.8,62.1c0-3.1-0.5-8.3-1.2-12.3c-16.2,1.2-31.1,4.1-44.9,8c0,1.7,0,3.6,0,4.3c0,14.5,10.4,26.3,23.2,26.3
		C227.4,88.4,237.8,76.8,237.8,62.1L237.8,62.1z"/>
	<path class="st1" d="M341,351.2c5.4,3.5,10.2,7.8,14,13c6.7,9.2,10.2,20.1,9.9,31.1c11.4-21.1,27.1-76.1-64.5-139.7
		C324.2,287.4,348.2,319.2,341,351.2L341,351.2z"/>
	<path class="st1" d="M156.9,364.1c3.8-5.4,8.6-9.7,14-13c-7.3-32,16.6-63.8,40.6-95.4C119.9,319,135.8,374.3,147,395.4
		C146.7,384.2,149.9,373.1,156.9,364.1z"/>
	<path class="st2" d="M449.7,187.4c25.4-27.1,59.6-98.9,47.9-136.6c-20.2-2.2-49.6,3.1-72.8,41.8h17.6c0,0-30.8,26.3-30.8,52.7
		c0,16.2,21.4,32.3,37.9,42.4C449.7,187.8,449.7,187.8,449.7,187.4z"/>
	<path class="st2" d="M69.4,92.7H87C63.9,54,34.6,48.8,14.2,50.9C2.5,88.6,36.7,160.3,62.1,187.4v0.2c16.6-10.2,37.9-26.1,37.9-42.4
		C100,119.2,69.4,92.7,69.4,92.7L69.4,92.7z"/>
	<path class="st3" d="M301.2,355.7c0,14-23.2,33.5-45.5,33.5c-22.3,0-45.5-19.9-45.5-33.5c0-14,23.2-15,45.5-15
		C278,340.4,301.2,341.6,301.2,355.7z"/>
	<path class="st4" d="M355,364.1c-13.5-18.3-37.7-25.4-58.8-17.5c3.1,2.2,5,5,5,9c0,14-23.2,33.5-45.5,33.5s-45.5-19.9-45.5-33.5
		c0-3.8,1.9-6.7,5-9c-21.1-8-45.1-1-58.8,17.5c-12.3,16.9-13.5,39.9-1.4,57c12.3,17.6,34.6,24.7,54.5,17.8l46.2-15.4l46.2,15.4
		c19.9,6.6,42-0.2,54.5-18.2C368.4,404.1,367.4,380.7,355,364.1z"/>
	<path class="st4" d="M302.4,439l-46.2-15.4L210.1,439c-8.5,2.9-17.5,3.1-25.9,1.2c12.6,27.1,39.9,45.6,71.6,45.6
		s58.9-18.7,71.6-45.5C319.2,442.3,310.7,441.7,302.4,439L302.4,439z"/>
	<path class="st4" d="M367.4,329.9c11.8,29.7,3.8,53.2-2.6,65.2v-0.2c0,1.4,0,2.9-0.2,4.3c12.1-17.1,32.7-42,64.5-69.1
		c8-6.7,14.5-16.9,19.4-28.7C415.6,298.6,387.1,314.5,367.4,329.9z"/>
	<path class="st4" d="M146.8,395.1c-6.6-12.1-14.5-35.4-2.6-65.2c-19.5-15.2-48.1-31.1-80.9-28.7c4.8,12.1,11.4,22,19.4,28.7
		c32,27.3,52.4,52.2,64.5,69.1c-0.2-1.4-0.2-2.9-0.2-4.3C146.8,394.9,146.8,395.1,146.8,395.1L146.8,395.1z"/>
	<path d="M317.5,453.5c-6.2,0-12.8-1-19-3.1l-42.4-14l-42.4,14c-25.4,8.5-52.7-0.5-68.1-22.5c-14.7-21.1-14.2-49.8,1.7-71
		c16.6-22.5,46.7-31.5,72.8-21.4c4.1,1.7,7.3,5.4,7.8,9.9c0.5,4.3-1.4,8.6-4.8,11.1c1.4,6.2,17.1,20.7,33.4,20.7
		c15.9,0,32-14.5,33.4-20.7c-3.5-2.6-5.4-6.7-4.8-11.1c0.5-4.7,3.5-8.5,7.4-9.9c26.3-9.9,56-1,72.8,21.4l-9.7,7.3l9.7-7.3
		c15.7,21.4,16.4,50,1.7,71C355,444.3,336.6,453.5,317.5,453.5L317.5,453.5z M255.9,411.5c1.2,0,2.6,0.2,3.8,0.7l46.2,15.4
		c15.2,5,31.6-0.5,40.8-13.5c9-12.6,8.3-29.7-1.2-42.7c-7.4-10.4-19.9-15.9-32-15.7l0,0c0,21.8-30.3,45.6-57.6,45.6
		s-57.6-23.9-57.6-45.6l0,0c-12.3-0.2-24.4,5.5-32,15.7c-9.7,13-10.2,30.3-1.2,43c9.2,13,25.6,18.7,40.8,13.5l46.2-15.4
		C253.1,411.7,254.7,411.5,255.9,411.5z"/>
	<path d="M255.9,435.3c-6.7,0-12.1-5.4-12.1-12.1v-28.7c0-6.7,5.4-12.1,12.1-12.1s12.1,5.4,12.1,12.1v28.7
		C268,430.2,262.7,435.3,255.9,435.3z"/>
	<path d="M255.9,497.9c-35.3,0-67.6-20.7-82.5-52.7c-1.9-4.1-1.2-9.2,1.4-12.6c2.9-3.6,7.4-5.4,12.1-4.1c6.6,1.4,13,1.2,19.4-1
		l46.2-15.4c2.4-0.7,5-0.7,7.8,0l46.2,15.4c6.1,1.9,12.3,2.4,18.7,1c4.7-1,9.2,0.7,11.8,4.3c2.9,3.6,3.5,8.5,1.4,12.6
		C323.3,477.5,291.2,497.9,255.9,497.9L255.9,497.9z M206.8,452.3c12.6,13.5,30.3,21.4,49.1,21.4s36.6-8.3,49.3-21.8
		c-2.2-0.5-4.3-1-6.2-1.7l-42.4-14l-42.4,14C211.7,451.4,209.2,451.8,206.8,452.3L206.8,452.3z"/>
	<path d="M364.6,411.3c-1.4,0-2.9-0.2-4.3-0.7c-5-1.9-8.3-7.1-7.8-12.6c1-9.2-1.7-19-7.3-26.6c-10.2-14-28.7-19.4-44.8-13.3
		c-3.6,1.4-7.8,1-11.1-1.4c-5.9-3.8-26.1-3.8-33.5-3.8c-7.4,0-27.8,0-33.5,3.8c-3.1,2.2-7.4,2.6-11.1,1.4
		c-16.2-6.1-34.6-0.7-44.8,13.3c-5.5,7.8-8.3,17.5-7.3,26.6c0.5,5.5-2.6,10.7-7.8,12.6c-5,1.9-10.9,0.2-14-4.3
		c-11.4-15.7-31.5-40.3-62.6-67.2C43.8,312.3,33.1,250.5,49,190.7C23.9,160.3-6.2,95.8,1.1,54.9C4,39,12.2,27,25,20.6
		C65.1,0.6,110.5,30.5,141.5,59c2.6,2.4,6.6,3.1,9.7,1.4c29.6-15,63.6-23,101.3-23.7c0.5,0,1,0,1.4,0h4.3c0.5,0,1,0,1.4,0
		c37.7,0.7,71.7,8.6,101.3,23.7c3.1,1.4,7.1,1,9.7-1.4C401.5,30.3,446.9,0.6,487,20.6c12.8,6.6,21.1,18.3,23.9,34.2
		c7.3,40.8-22.6,105.3-47.9,135.9c15.7,60.2,5.4,121.5-25.9,148.3c-31.1,26.8-51.2,51.2-62.6,67.2
		C372.1,409.2,368.4,411.3,364.6,411.3L364.6,411.3z M314.2,331.3c19.5,0,38.7,9.2,50.8,25.6c2.9,4.1,5.5,8.5,7.4,13
		c12.1-14.2,28.4-31.5,49.3-49.3c27.5-23.5,29.9-84.4,16.6-129.8c-1.2-4.1-0.2-8.6,2.9-11.6c22.3-23.7,52.2-86.1,46.2-120.1
		c-1.9-11.1-7.3-15-10.9-16.9c-29.2-14.5-68.6,15.4-89.4,34.6c-10.2,9.2-24.9,11.4-37,5.4c-26.6-13.5-57.6-20.6-92.1-21.1
		c-0.5,0-0.7,0-1.2,0H255c-0.5,0-0.7,0-1.2,0c-34.6,0.5-65.5,7.8-92.1,21.1c-12.1,6.1-26.8,3.8-37-5.4C104,57.3,64.5,27.4,35.3,42.1
		c-3.8,1.9-9,5.5-10.9,16.9c-6.1,34.2,23.9,96.5,46.2,120.1c2.9,3.1,4.1,7.4,2.9,11.6c-13.3,45.1-10.9,106.1,16.6,129.8
		c20.7,17.8,37,34.7,49.3,49.3c1.9-4.7,4.3-9,7.4-13c15.4-21.1,42.5-30.3,67.4-23.2c9.9-4.1,23.5-5,41.5-5c17.8,0,31.6,1,41.5,5
		C302.8,332,308.5,331.3,314.2,331.3z"/>
	<path d="M310,239.1c-6.7,0-12.1-5.4-12.1-12.1c0-10.4,4.1-20.2,11.4-27.8c7.3-7.4,17.1-11.6,27.8-11.6h0.2
		c21.4,0,39.1,17.6,39.1,39.1c0,6.7-5.4,12.1-12.1,12.1l0,0c-6.7,0-12.1-5.4-12.1-12.1c0-8.3-6.7-15-15-15l0,0
		c-4.1,0-7.8,1.7-10.7,4.3c-2.9,2.9-4.3,6.7-4.3,10.7C322.1,234,316.6,239.1,310,239.1L310,239.1L310,239.1z"/>
	<path d="M147.5,239.1c-6.7,0-12.1-5.4-12.1-12.1c0-10.4,4.1-20.2,11.4-27.8c7.3-7.4,17.1-11.6,27.8-11.6h0.2
		c21.4,0,39.1,17.6,39.1,39.1c0,6.7-5.4,12.1-12.1,12.1l0,0c-6.7,0-12.1-5.4-12.1-12.1c0-8.3-6.7-15-15-15l0,0
		c-4.1,0-7.8,1.7-10.7,4.3c-2.9,2.9-4.3,6.7-4.3,10.7C159.6,234,154.1,239.1,147.5,239.1L147.5,239.1z"/>
	<path d="M325.8,162c-16.2,0-29.6-14.2-29.6-32s13.3-32,29.6-32s29.6,14.2,29.6,32C355.1,147.7,341.8,162,325.8,162z M325.8,122.5
		c-2.4,0-5.4,3.1-5.4,7.8c0,4.7,2.9,7.8,5.4,7.8s5.4-3.1,5.4-7.8C330.9,125.6,328.2,122.5,325.8,122.5z"/>
	<path d="M255.4,197.1c-16.2,0-29.6-14.2-29.6-32s13.3-32,29.6-32c16.2,0,29.6,14.2,29.6,32C284.8,183,271.6,197.1,255.4,197.1z
		 M255.4,157.5c-2.4,0-5.4,3.1-5.4,7.8c0,4.7,2.6,7.8,5.4,7.8c2.6,0,5.4-3.1,5.4-7.8C260.8,160.7,258,157.5,255.4,157.5z"/>
	<path d="M297.2,100.5c-19.4,0-35.3-17.1-35.3-38.4c0-3.6,0.5-9.7,1.4-14.7c1.2-6.1,6.7-10.2,12.8-9.7c16.4,1.2,32.3,4.1,47.4,8.5
		c5,1.4,8.6,6.1,8.6,11.4c0,1.9,0,3.8,0,4.7C332.5,83.4,316.6,100.5,297.2,100.5L297.2,100.5z M286,63.3c0.5,7.3,5.4,13.3,11.1,13.3
		c4.7,0,8.6-3.8,10.4-9.5C300.5,65.4,293.6,64.2,286,63.3L286,63.3z"/>
	<path d="M186.1,162c-16.2,0-29.6-14.2-29.6-32s13.3-32,29.6-32c16.2,0,29.6,14.2,29.6,32C215.5,147.7,202.1,162,186.1,162z
		 M186.1,122.5c-2.4,0-5.4,3.1-5.4,7.8c0,4.7,2.9,7.8,5.4,7.8c2.4,0,5.4-3.1,5.4-7.8C191.3,125.6,188.5,122.5,186.1,122.5z"/>
	<path d="M214.6,100.5c-19.4,0-35.3-17.1-35.3-38.4c0-0.7,0-2.6,0-4.7c0.2-5.4,3.6-9.9,8.6-11.4c14.7-4.1,30.8-7.1,47.4-8.3
		c6.1-0.5,11.6,3.6,12.8,9.7c1,5,1.4,11.1,1.4,14.7C249.9,83.4,233.8,100.5,214.6,100.5L214.6,100.5z M204.2,67.1
		c1.7,5.4,5.9,9.5,10.4,9.5c5.9,0,10.7-6.1,11.1-13.3C218.2,64.2,211.1,65.4,204.2,67.1L204.2,67.1z"/>
	<path d="M255.9,401.3c-27.3,0-57.6-23.9-57.6-45.6c0-27.1,37.5-27.1,57.6-27.1s57.6,0,57.6,27.1
		C313.3,377.4,283.2,401.3,255.9,401.3z M222.5,356.3c1.2,6.2,17.1,20.7,33.4,20.7s32.2-14.7,33.4-20.7c-2.6-1.7-10.9-3.6-33.4-3.6
		S225.1,354.4,222.5,356.3z M289.3,355.7h12.1H289.3L289.3,355.7z"/>
	<path d="M449.9,200.1c-2.2,0-4.7-0.7-6.6-1.9c-29-17.6-43.7-35.3-43.7-52.7c0-16.4,8.6-32,17.6-43.2c-1.2-1-2.2-2.2-2.9-3.5
		c-2.2-3.8-2.2-8.5,0.2-12.1c27.8-46.3,64.8-49.8,84.4-47.5c4.8,0.5,8.6,3.8,10.2,8.5c13.3,43-22.6,117-48.4,145.9
		c-0.7,1.7-1.9,3.1-3.5,4.1C454.9,199.4,452.6,200.1,449.9,200.1L449.9,200.1z M447.8,82.2c2.6,1.4,4.8,3.6,5.9,6.6
		c1.7,4.8,0.5,10.2-3.5,13.3c-7.3,6.2-26.6,26.6-26.6,43.6c0,5,6.2,14.5,23.5,26.3c21.1-27.1,43.6-78.5,40.3-109.3
		C472.7,63.3,459.4,69.9,447.8,82.2L447.8,82.2z"/>
	<path d="M62.1,200.1c-2.6,0-5-0.7-7.3-2.4c-1.2-1-2.4-2.2-3.1-3.6C26.2,165.3-10.7,90.6,3,47.6c1.4-4.7,5.5-8,10.2-8.5
		c19.5-2.2,56.5,1.2,84.4,47.5c2.2,3.6,2.4,8.5,0.2,12.1c-0.7,1.2-1.7,2.4-2.9,3.5c8.6,11.4,17.6,26.8,17.6,43.2
		c0,17.5-14.7,35.1-43.7,52.7C66.4,199.4,64.2,200.1,62.1,200.1L62.1,200.1z M24.1,62.8C21,93.6,43.5,144.9,64.4,172.1
		c17.1-11.8,23.5-21.3,23.5-26.3c0-16.9-19-37.2-26.6-43.6c-3.8-3.5-5.4-8.6-3.5-13.3c1-2.9,3.1-5.4,5.9-6.6
		C52.4,69.9,39.1,63.3,24.1,62.8L24.1,62.8z"/>
	<path d="M364.6,411.3c-1.4,0-2.9-0.2-4.3-0.7c-5-1.9-8.3-7.1-7.8-12.6c0-1,0.2-2.2,0.2-3.1l0,0c0-2.4,1-4.8,2.2-6.7
		c5-10.2,10.9-29.2,1.2-53.6c-1.9-5-0.5-10.7,3.8-14c20.2-15.7,52-33.9,89.4-31.1c3.8,0.2,7.3,2.4,9.5,5.5c1.9,3.5,2.4,7.3,1,10.9
		c-5.9,14.2-13.3,25.4-22.6,33.5c-31.1,26.8-51.2,51.2-62.6,67.2C372.1,409.2,368.4,411.3,364.6,411.3L364.6,411.3z M381.8,334.2
		c2.2,7.3,3.5,14.2,3.6,20.6c9.9-10.7,21.8-22.3,35.8-34.2c2.2-1.9,4.1-3.8,6.1-6.6C409.8,317.4,394,325.7,381.8,334.2z"/>
	<path d="M147.2,411.3c-3.8,0-7.4-1.9-9.9-5c-11.4-15.7-31.5-40.3-62.6-67.2c-9.5-8-16.9-19.4-22.6-33.5c-1.4-3.6-1-7.8,1-10.9
		c1.9-3.5,5.5-5.4,9.5-5.5c37.2-2.6,69.1,15.4,89.2,31.1c4.3,3.5,5.9,9,3.8,14c-9.7,24.4-3.8,43.6,1.2,53.6c1.4,1.9,2.2,4.1,2.2,6.7
		l0,0c0,1,0,2.2,0.2,3.1c0.5,5.5-2.6,10.7-7.8,12.6C149.9,411,148.6,411.3,147.2,411.3L147.2,411.3z M84.3,314.2
		c1.9,2.4,3.8,4.7,6.1,6.6c14,12.1,25.9,23.5,35.8,34.1c0.5-6.6,1.4-13.3,3.6-20.6C117.6,325.7,101.9,317.4,84.3,314.2L84.3,314.2z"
		/>
	<path d="M364.8,407.2c-1,0-1.9-0.2-3.1-0.5c-5.4-1.4-9.2-6.2-9-11.8c0.2-8.5-2.4-16.9-7.4-23.7c-2.9-3.8-6.6-7.3-10.7-9.9
		c-4.3-2.6-6.6-8-5.4-13c6.1-26.3-15.4-55.1-38.4-85.6c-3.6-4.8-3.1-11.4,1-15.7c4.1-4.3,10.7-4.8,15.4-1.4
		c99.6,69.1,80.9,131.4,68.1,155.1C373.5,404.7,369.1,407.2,364.8,407.2z M353.9,345.5c2.6,2.2,5,4.3,7.3,7.1
		c-1.2-8.5-3.8-16.4-7.8-24.2C354.4,333.9,354.6,339.7,353.9,345.5z"/>
	<path d="M146.8,407.2c-4.3,0-8.5-2.4-10.7-6.2c-12.6-23.7-31.5-86.3,68.1-155.1c4.8-3.5,11.4-2.6,15.4,1.4c4.1,4.3,4.7,10.9,1,15.7
		c-22.6,30.4-44.4,59.1-38.4,85.6c1.2,5-1,10.2-5.4,13c-4.1,2.6-7.8,6.1-10.7,9.9c-5,6.7-7.8,15.2-7.4,23.7c0.2,5.5-3.6,10.7-9,11.8
		C148.7,407.2,147.9,407.2,146.8,407.2L146.8,407.2z M156.9,364.1L156.9,364.1L156.9,364.1z M158.2,328.3
		c-3.8,7.8-6.6,15.9-7.8,24.2c2.2-2.4,4.7-4.8,7.3-7.1C157,339.7,157.2,333.9,158.2,328.3z"/>
</g>
</svg>
