<?xml version="1.0" encoding="utf-8"?>
<!-- Generator: Adobe Illustrator 23.1.1, SVG Export Plug-In . SVG Version: 6.00 Build 0)  -->
<svg version="1.1" id="Layer_1" xmlns="http://www.w3.org/2000/svg" xmlns:xlink="http://www.w3.org/1999/xlink" x="0px" y="0px"
	 viewBox="0 0 512 512" style="enable-background:new 0 0 512 512;" xml:space="preserve">
<style type="text/css">
	.st0{fill:#464655;}
	.st1{fill:#AA825A;}
	.st2{fill:#D7A055;}
	.st3{fill:#B08758;}
	.st4{fill:#7C665D;}
</style>
<g>
	<g>
		<path class="st0" d="M256.2,435.9h-72c23.9,38.3,63.9,48,72,48c7.9,0,48-9.6,72-48H256.2z"/>
		<g>
			<path class="st1" d="M182.2,118c0,0-69.8-95.1-101.5-90.6C37.3,33.4,2.4,102.9,9.2,150.5c4.5,31.7,57.4,64.5,114.1,64.7
				L182.2,118z"/>
			<path class="st1" d="M336.7,115c0,0,68.3-93.1,99.4-88.8c42.4,5.9,76.6,74,70,120.5c-4.3,31-56.3,63.2-111.6,63.4L336.7,115z"/>
		</g>
		<path class="st2" d="M312.1,120.1c-27.4-5.1-45.1-20.1-56-51.8c-9.2,33.8-24.6,40-52,45.7c-60.9,13-131.9,78.4-131.9,150.9
			c0,95.9,39,153.9,94.9,188.9l89,38.3l95.9-41.3c48.5-34.5,88-90,88-185.9C440.1,192.6,386.1,134,312.1,120.1z"/>
		<g>
			
				<ellipse transform="matrix(0.7071 -0.7071 0.7071 0.7071 -148.4753 206.0356)" class="st3" cx="174.5" cy="282.2" rx="39.6" ry="52"/>
			
				<ellipse transform="matrix(0.7071 -0.7071 0.7071 0.7071 -100.6137 321.5911)" class="st3" cx="337.9" cy="282.2" rx="52" ry="39.6"/>
		</g>
		<path class="st4" d="M256.2,282.7c75.1,0,108.5,100.2,91.8,133.6c-21.1,42.3-63.1,25.4-91.8,25.4c-28.7,0-70.7,16.8-91.8-25.4
			C147.7,382.9,181.1,282.7,256.2,282.7z"/>
		<path class="st0" d="M304.2,376.5c0,17.7-26.1,35.5-48,35.5l0,0c-22,0-48-18-48-35.5c0-17.7,18-28.4,40.1-28.4h16
			C286.2,348.1,304.2,359,304.2,376.5z"/>
		<path d="M347.6,412.8c-4-1.8-8.7,0-10.6,4c-11.6,25.1-31.5,24.8-60.6,21.5c-4.3-0.5-8.3-1-12.2-1.3v-17.5
			c23.3-3.6,48-21.8,48-42.9c0-21.1-20.1-36.5-48-36.5h-16c-27.7,0-48,15.4-48,36.3s24.8,39.3,48,42.9v17.5c-4,0.3-8.1,0.8-12.2,1.3
			c-29.1,3.5-49,3.8-60.6-21.5c-1.8-4-6.6-5.8-10.6-4s-5.8,6.6-4,10.6c17.2,37.6,51.8,33.5,76.9,30.5c6.6-0.8,12.9-1.5,18.3-1.5
			s11.7,0.7,18.3,1.5c7.3,0.8,15.4,1.8,23.6,1.8c20.1,0,41.1-5.8,53.3-32.4C353.4,419.4,351.6,414.8,347.6,412.8z M216.1,376.5
			c0-13.4,16.2-20.5,32-20.5h16c15.8,0,32,7.1,32,20.5c0,12.2-21.8,27.4-39.8,27.6c-0.2,0-0.2,0-0.3,0
			C238.2,404.1,216.1,388.9,216.1,376.5z"/>
		<path d="M506.4,95c-14-46.1-51.7-85.7-78.9-83c-21.6,2-50.7,34-88.8,97.9c-0.2,0.3-0.3,0.7-0.5,0.8c-2.5,3.6-5.4,4.8-10.7,4.8
			c-6.6,0-19-6.9-23.9-25.8c-1.2-4.3-5.4-6.8-9.7-5.8c-4.3,1.2-6.8,5.4-5.8,9.7c0.5,1.7,0.8,3.1,1.3,4.6
			c-11.7-5.4-22.9-19.1-25.3-31.7c0,0,0,0,0-0.2c0-0.2,0-0.3-0.2-0.5c0-0.2,0-0.2-0.2-0.3c0-0.2-0.2-0.3-0.2-0.5s-0.2-0.2-0.2-0.3
			c0-0.2-0.2-0.2-0.2-0.3c0-0.2-0.2-0.3-0.2-0.3c0-0.2-0.2-0.2-0.2-0.3c0-0.2-0.2-0.3-0.2-0.3c0-0.2-0.2-0.2-0.2-0.3
			c-0.2-0.2-0.2-0.2-0.3-0.3c0-0.2-0.2-0.2-0.2-0.3c-0.2-0.2-0.2-0.2-0.3-0.3c-0.2-0.2-0.2-0.2-0.3-0.3l-0.2-0.2
			c-0.2-0.2-0.3-0.2-0.3-0.3l-0.2-0.2c-0.2-0.2-0.3-0.2-0.3-0.3c-0.2,0-0.2-0.2-0.3-0.2s-0.3-0.2-0.3-0.2c-0.2,0-0.2-0.2-0.3-0.2
			s-0.2-0.2-0.3-0.2c-0.2,0-0.3-0.2-0.5-0.2c-0.2,0-0.2,0-0.3,0s-0.3-0.2-0.5-0.2c0,0,0,0-0.2,0h-0.2c-0.2,0-0.3,0-0.5,0
			c-0.2,0-0.2,0-0.3,0s-0.3,0-0.5,0s-0.3,0-0.3,0c-0.2,0-0.2,0-0.3,0c-0.2,0-0.3,0-0.5,0h-0.2h-0.2c-0.2,0-0.3,0-0.5,0.2
			c-0.2,0-0.2,0-0.3,0.2c-0.2,0-0.3,0.2-0.3,0.2c-0.2,0-0.3,0.2-0.3,0.2c-0.2,0-0.2,0.2-0.3,0.2c-0.2,0-0.3,0.2-0.3,0.2
			c-0.2,0-0.2,0.2-0.2,0.2c-0.2,0.2-0.3,0.2-0.5,0.3l-0.2,0.2c-0.2,0.2-0.3,0.2-0.3,0.3c-0.2,0-0.2,0.2-0.2,0.2
			c-0.2,0.2-0.2,0.2-0.3,0.3c-0.2,0.2-0.2,0.2-0.3,0.3c0,0.2-0.2,0.2-0.2,0.3c-0.2,0.2-0.2,0.2-0.3,0.3c0,0.2-0.2,0.2-0.2,0.3
			c-0.2,0.2-0.2,0.3-0.2,0.3c0,0.2-0.2,0.2-0.2,0.3c0,0.2-0.2,0.3-0.2,0.3c0,0.2-0.2,0.2-0.2,0.3c0,0.2-0.2,0.2-0.2,0.3
			c0,0.2-0.2,0.3-0.2,0.5s0,0.2-0.2,0.3c0,0.2,0,0.3-0.2,0.5c0,0,0,0,0,0.2c-2.3,12.7-14.2,26.7-26.1,32c0.5-1.7,1-3.3,1.5-5
			c1.2-4.3-1.5-8.6-5.8-9.7c-4.3-1.2-8.6,1.5-9.7,5.8c-5,18.7-17.3,25.8-23.9,25.8c-5.4,0-8.4-1.3-10.7-4.8c-0.2-0.3-0.3-0.7-0.5-1
			C135.2,46.2,106.1,14.1,84.5,12C57.4,9.3,19.8,49,5.6,95c-14.7,47.9,0,88,40.3,109.9c1.2,0.7,2.3,1.2,3.8,1.7
			c10.9,3.8,19.8,8.9,17,31.7c0,0.2,0,0.3,0,0.3c0,0.3-0.2,0.7-0.2,1c-0.2,0.8-0.3,1.7-0.3,2.6c-9.1,52.8,3,110.1,33,157.2
			c13.4,21,37,49.9,73.1,67.8c8.4,4.1,15.7,8.4,22.6,12.4c19,11.1,35.5,20.5,61.1,20.5c25.9,0,42.1-9.4,60.9-20.5
			c6.9-4.1,14.2-8.3,22.8-12.5c36.2-18.2,59.8-46.9,73.1-67.8c30-47,42.1-104.3,33-157.2c-0.2-0.8-0.3-1.7-0.3-2.5
			c0-0.3,0-0.7-0.2-1.2c0-0.2,0-0.3-0.2-0.5c-2.8-22.6,5.9-27.7,17-31.7c1.3-0.5,2.6-1,3.8-1.7C506.4,183,521.1,142.9,506.4,95z
			 M458.6,190.8c-0.3,0.2-0.8,0.3-1.3,0.7c-7.9,2.8-16,6.9-21.6,14.9c-7.1-15.8-16.2-27.9-24.1-38.3c-13.7-18-19.3-26.6-11.9-40.8
			c2-4,0.5-8.7-3.3-10.7c-4-2-8.7-0.5-10.7,3.3c-12.5,23.8,0,40.3,13.2,57.9c11.2,15,25.3,33.5,31,63.1c0.2,1.3,0.3,2.6,0.7,4.1
			c8.4,49-2.8,102.2-30.9,145.8c-12.4,19.3-34,45.7-66.9,62.2c-8.9,4.5-16.7,9.1-23.6,13c-18.2,10.6-31.2,18.2-52.8,18.2
			c-21.3,0-34.5-7.8-53-18.3c-6.8-4-14.5-8.4-23.4-12.9C147,436.4,125.4,410,113,390.7c-27.9-43.7-39.1-96.9-30.9-145.8
			c0.2-1.3,0.5-2.6,0.7-4c5.6-29.5,19.6-48.2,31-63.2c13.2-17.5,25.8-34.2,13.2-57.9c-2-4-6.9-5.4-10.7-3.3c-4,2-5.4,6.9-3.3,10.7
			c7.4,14.2,1.8,22.8-11.9,40.8c-7.8,10.4-16.8,22.3-24.1,38.3c-5.4-7.9-13.7-12.1-21.6-14.9c-0.5-0.2-1-0.3-1.3-0.7
			c-45.2-24.6-39.8-67.7-32.7-91.1c12.2-40,44.9-73.5,62.1-71.8c7.3,0.7,28.9,10.7,75.9,89c0.2,0.3,0.3,0.8,0.5,1.2
			c5.4,9.1,13.7,13.5,25.1,13.5c10.1,0,21.8-6.1,30.4-18c1.5,1.5,3.5,2.3,5.6,2.3c0.7,0,1.3-0.2,2-0.3c12.9-3.3,25.8-14,33.8-26.7
			c8.1,12.7,21,23.4,33.8,26.7c0.7,0.2,1.3,0.3,2,0.3c2,0,3.8-0.8,5.3-2c8.4,11.6,20.1,17.5,30,17.5c11.4,0,19.6-4.5,25.1-13.5
			c0.2-0.3,0.3-0.7,0.5-1.2c46.9-78.2,68.7-88.3,75.9-89c17.2-1.7,49.9,31.9,62.1,71.8C498.3,123.1,503.8,166.2,458.6,190.8z"/>
	</g>
	<path d="M315.8,291.3c-6.4,0-11.6-5.1-11.6-11.6c0-9.9,4-19.3,10.9-26.6c6.9-7.1,16.3-11.1,26.6-11.1h0.2
		c20.5,0,37.3,16.8,37.3,37.3c0,6.4-5.1,11.6-11.6,11.6l0,0c-6.4,0-11.6-5.1-11.6-11.6c0-7.9-6.4-14.4-14.4-14.4l0,0
		c-4,0-7.4,1.7-10.2,4.1c-2.8,2.8-4.1,6.4-4.1,10.2C327.3,286.2,322,291.3,315.8,291.3L315.8,291.3L315.8,291.3z"/>
	<path d="M144.1,291.3c-6.4,0-11.6-5.1-11.6-11.6c0-9.9,4-19.3,10.9-26.6c6.9-7.1,16.3-11.1,26.6-11.1h0.2
		c20.5,0,37.3,16.8,37.3,37.3c0,6.4-5.1,11.6-11.6,11.6l0,0c-6.4,0-11.6-5.1-11.6-11.6c0-7.9-6.4-14.4-14.4-14.4l0,0
		c-4,0-7.4,1.7-10.2,4.1c-2.8,2.8-4.1,6.4-4.1,10.2C155.6,286.2,150.3,291.3,144.1,291.3L144.1,291.3z"/>
</g>
</svg>
