<?xml version="1.0" encoding="utf-8"?>
<!-- Generator: Adobe Illustrator 23.1.1, SVG Export Plug-In . SVG Version: 6.00 Build 0)  -->
<svg version="1.1" id="Layer_1" xmlns="http://www.w3.org/2000/svg" xmlns:xlink="http://www.w3.org/1999/xlink" x="0px" y="0px"
	 viewBox="0 0 512 512" style="enable-background:new 0 0 512 512;" xml:space="preserve">
<style type="text/css">
	.st0{fill:#EAA250;}
	.st1{fill:#F98080;}
	.st2{fill:#7D3D1A;}
</style>
<path class="st0" d="M420.1,132c22.2-3.8,39-20,39-39.5c0-22.3-21.7-40.4-48.7-40.4c-26.7,0-48.4,17.7-48.7,39.8
	C383.8,102.4,403.6,115.9,420.1,132z"/>
<path class="st0" d="M92,132c-22.2-3.8-39-20-39-39.5c0-22.3,21.7-40.4,48.7-40.4c26.7,0,48.4,17.7,48.7,39.8
	C128.2,102.4,108.5,115.9,92,132L92,132z"/>
<path class="st1" d="M415.2,127.4c8.4-5,13.9-13.3,13.9-22.5c0-15.4-15.2-27.9-33.6-27.9c-13.6,0-25.4,6.7-30.6,16.5
	C383.5,102.5,400.6,114.1,415.2,127.4z"/>
<path class="st1" d="M96.8,127.4c-8.4-5-13.9-13.3-13.9-22.5c0-15.4,15.2-27.9,33.6-27.9c13.6,0,25.4,6.7,30.6,16.5
	C128.5,102.5,111.5,114.1,96.8,127.4z"/>
<path class="st2" d="M451.7,113.5c-6.9,9.4-18.2,16.1-31.7,18.4c-4.1-3.9-8.4-7.8-13-11.5c0,0,0,0-0.1-0.1c-2.2-1.8-4.3-3.5-6.8-5.2
	c-0.1-0.1-0.1-0.1-0.4-0.3c-9.3-7-19.4-13.3-30-18.9c-0.4-0.1-0.5-0.3-0.8-0.4c-2.5-1.3-5.1-2.5-7.6-3.8
	c0.4-22.1,21.9-39.8,48.7-39.8c0.7,0,1.6,0,2.2,0.1l1.8-1c-40.8-16.2-79-16.8-107.8-13c6.9-8.7,14.8-17,23-22.5
	c0,0-36.5-5.2-69.1,11C218.3,0.7,165.9,8.1,165.9,8.1c10.6,7,20.7,17.9,29.7,29.2c-27.5-2.4-61.9-0.4-98.1,14l1.8,1
	c0.7,0,1.3-0.1,2.2-0.1c26.7,0,48.4,17.7,48.7,39.8c-2.5,1.3-5.1,2.5-7.6,3.8c-0.4,0.1-0.5,0.3-0.8,0.4c-10.6,5.6-20.7,11.9-30,18.9
	c-0.1,0.1-0.1,0.1-0.4,0.3c-2.4,1.7-4.6,3.5-6.8,5.2c0,0,0,0-0.1,0.1c-4.6,3.6-8.8,7.5-13,11.5c-13.3-2.2-24.7-9.1-31.7-18.4
	c-17.4,25-33.9,60.3-41.7,109.4h16.9c0,0,0,100.6,60.7,173.2C145.3,456,222.2,468.6,248.2,502c1.7,2.1,4.3,3.4,7.4,3.4
	s5.7-1.3,7.4-3.4c26.1-33.4,102.9-46.1,152.6-105.6c60.7-72.6,60.7-173.2,60.7-173.2H493C485.6,173.9,469.1,138.5,451.7,113.5
	L451.7,113.5z"/>
<path class="st0" d="M399.9,207c-2.6-39.7-38.2-71.8-81.4-73.3c-24.2-0.8-46.3,7.7-62.4,22.1c-16.1-14.4-38.2-22.9-62.4-22.1
	c-43.2,1.5-78.8,33.7-81.4,73.3c-1.8,28.6,13,54.2,36.3,69.1c11.7,7.5,19.4,19.3,22.1,32.1l0,0c-11.2,14.8-9.4,34.9,4.6,47.8
	c11,10.1,27,13.5,41.6,9.1l39.1-12l39.1,12c14.5,4.5,30.6,1,41.6-9.1c13.9-12.8,15.7-33,4.6-47.8l0,0c2.7-12.8,10.4-24.6,22.1-32.1
	C386.9,261,401.6,235.6,399.9,207z"/>
<path class="st2" d="M294.5,300c0,10.9-19.7,26.3-38.5,26.3s-38.5-15.4-38.5-26.3s19.7-11.7,38.5-11.7S294.5,289.1,294.5,300
	L294.5,300z"/>
<path class="st0" d="M340,306.6c-11.5-14.4-31.8-19.8-49.7-13.5c2.7,1.7,4.2,3.9,4.2,7c0,10.9-19.7,26.3-38.5,26.3
	s-38.5-15.4-38.5-26.3c0-3.1,1.6-5.3,4.2-7c-17.9-6.1-38.2-0.8-49.7,13.5c-10.4,13.1-11.4,31.1-1.2,44.4
	c10.4,13.8,29.3,19.3,46.1,14.1l39.1-12l39.1,12c16.8,5.2,35.6-0.3,46.1-14.1C351.4,337.7,350.4,319.7,340,306.6L340,306.6z"/>
<path class="st0" d="M295.6,365.1l-39.1-12l-39.1,12c-7.2,2.2-14.6,2.5-21.8,1c10.6,21.1,33.6,35.6,60.4,35.6s49.9-14.5,60.4-35.5
	C309.7,367.5,302.4,367.2,295.6,365.1L295.6,365.1z"/>
<path d="M256,333.2c-22,0-46.1-17.5-46.1-33.2c0-18.7,28.7-18.7,46.1-18.7c17.2,0,46.1,0,46.1,18.7C302.1,315.8,278,333.2,256,333.2
	z M256,295.2c-27.9,0-30.9,3.4-30.9,4.7c0,6,15.4,19.3,30.9,19.3c15.4,0,30.9-13.3,30.9-19.3C286.9,298.5,283.9,295.2,256,295.2z"/>
<path d="M204,374c-12.6,0-24.7-4.5-34-13c-15.7-14.4-18.4-36.7-7.3-54.1c-2.9-10.3-9.4-19.4-18.3-25.1
	c-26.8-17.2-41.7-45.3-39.7-75.3c2.9-43.2,41.7-78.2,88.6-79.9c23.2-0.8,45.1,6.1,62.7,19.7c17.6-13.5,39.6-20.5,62.7-19.7
	c46.9,1.7,85.8,36.7,88.6,79.9c2,30-12.9,58.1-39.7,75.3c-8.9,5.7-15.6,14.8-18.3,25.1c11.2,17.3,8.4,39.7-7.3,54.1
	c-13,12-31.8,16.1-49.3,10.8l-36.7-11.3l-36.7,11.3C214.4,373.2,209,374,204,374L204,374z M196.9,140.5c-1.1,0-2.2,0-3.1,0
	c-39.3,1.4-71.7,30.7-74.1,66.8c-1.6,25.1,10.7,48.6,33.2,63c13.2,8.4,22.1,21.4,25.3,36.5c0.4,1.8,0,3.8-1.2,5.3
	c-9.1,12.2-7.6,28.5,3.8,38.8c8.9,8.2,21.8,11,33.7,7.4l39.1-12c1.5-0.4,3.1-0.4,4.9,0l39.1,12c11.9,3.6,24.8,0.8,33.7-7.4
	c11.4-10.5,12.9-26.8,3.8-38.8c-1.2-1.5-1.6-3.5-1.2-5.4c3.1-15.1,12.2-28.1,25.3-36.5c22.5-14.2,34.8-37.9,33.2-63
	c-2.3-36-34.8-65.4-74.1-66.8c-21.4-0.7-41.6,6.4-56.8,20.1c-2.9,2.7-7.6,2.7-10.6,0C236.2,147.6,217.3,140.5,196.9,140.5
	L196.9,140.5z"/>
<path d="M308.2,374c-5.1,0-10.3-0.7-15.3-2.4l-36.7-11.3l-36.7,11.3c-20.3,6.3-42.3-0.4-54.7-16.6c-11.9-15.6-11.4-36.7,1.4-52.7
	c13.3-16.8,37.4-23.3,58.5-15.9c2.6,1,4.6,3.1,4.9,5.7c0.3,2.7-0.9,5.2-3.1,6.6c-0.9,0.6-0.9,0.8-0.9,1.3c0,6,15.4,19.3,30.9,19.3
	s30.9-13.3,30.9-19.3c0-0.4,0-0.6-0.9-1.3c-2.3-1.5-3.7-4.1-3.1-6.6c0.3-2.7,2.3-4.7,4.9-5.7c21-7.3,45.1-0.7,58.5,15.9l0,0
	c12.7,15.9,13.2,37,1.4,52.7C338.1,367.2,323.5,374,308.2,374L308.2,374z M256,346.1c0.8,0,1.6,0.1,2.4,0.4l39.1,12
	c13.9,4.3,29.1-0.3,37.5-11.5c8.1-10.6,7.7-25.3-1.2-36.3c-7.6-9.4-19.9-14.2-32-13.1c0.1,0.8,0.1,1.7,0.1,2.4
	c0,15.9-24.1,33.2-46.1,33.2s-46.1-17.5-46.1-33.2c0-0.7,0-1.5,0.1-2.4c-12.2-1.1-24.5,3.8-32,13.1c-8.8,11-9.2,25.7-1.2,36.3
	c8.5,11.2,23.7,15.8,37.5,11.5l39.1-12C254.4,346.2,255.3,346.1,256,346.1z"/>
<path d="M256,359.8c-4.2,0-7.6-3.1-7.6-7v-22.3c0-3.9,3.4-7,7.6-7c4.2,0,7.6,3.1,7.6,7v22.3C263.6,356.7,260.2,359.8,256,359.8z"/>
<path d="M256,408.7c-28.7,0-55.3-15.6-67.5-39.7c-1.2-2.4-0.8-5.3,0.9-7.3c1.6-2,4.7-3.1,7.6-2.4c5.9,1.3,11.9,1,17.7-0.8l39.1-12
	c1.5-0.4,3.1-0.4,4.9,0l39.1,12c5.4,1.7,11.4,2,17.1,1c2.7-0.6,5.7,0.4,7.4,2.5c1.8,2.1,2.2,4.9,0.9,7.3
	C311.2,393.2,284.9,408.7,256,408.7L256,408.7z M209.5,373.7c11.1,13,28.2,21,46.7,21c18.3,0,35.6-8,46.7-21.1c-3.4-0.3-6.5-1-9.5-2
	l-36.7-11.3l-36.7,11.3C216.3,372.8,213,373.3,209.5,373.7L209.5,373.7z"/>
<path d="M228.6,294.5c-1.2,0-2.4-0.3-3.5-0.8c-3.7-1.8-5.1-6-3.1-9.5c19.1-33.1,0.1-66.6,0-66.9c-2-3.4-0.7-7.7,3.1-9.5
	c3.7-1.8,8.4-0.6,10.3,2.9c0.9,1.7,22.9,40.5,0,80C233.9,293.3,231.4,294.5,228.6,294.5L228.6,294.5z"/>
<path d="M283.5,294.5c-2.7,0-5.3-1.4-6.6-3.8c-22.9-39.5-0.9-78.4,0-80c2-3.4,6.5-4.7,10.3-2.9c3.7,1.8,5.1,6,3.1,9.5
	c-0.3,0.6-19,34.1,0,66.9c2,3.4,0.7,7.7-3.1,9.5C285.8,294.3,284.7,294.5,283.5,294.5L283.5,294.5z"/>
<g>
	<path d="M158.2,228.9c-3.9,0-7.1-3.1-7.1-7c0-5.9,2.2-11.5,6.5-15.6c4.2-4.2,9.7-6.4,15.7-6.6h0.1c6,0,11.4,2.2,15.7,6.4
		c4.2,4.2,6.5,9.6,6.7,15.5c0,3.9-3.1,7-7.1,7l0,0c-3.9,0-7.1-3.1-7.1-7c0-2.1-0.8-4.2-2.4-5.7c-1.5-1.5-3.5-2.4-5.8-2.4l0,0
		c-2.1,0-4.2,0.8-5.8,2.4s-2.4,3.6-2.4,5.7C165.3,225.7,162.2,228.9,158.2,228.9L158.2,228.9L158.2,228.9z"/>
	<path d="M323.2,228.9c-3.9,0-7.1-3.1-7.1-7c0-5.9,2.2-11.5,6.5-15.6s9.7-6.4,15.7-6.6h0.1c6,0,11.4,2.2,15.7,6.4s6.5,9.6,6.7,15.5
		c0,3.9-3.1,7-7.1,7l0,0c-3.9,0-7.1-3.1-7.1-7c0-2.1-0.8-4.2-2.4-5.7c-1.6-1.5-3.5-2.4-5.8-2.4l0,0c-2.1,0-4.2,0.8-5.8,2.4
		s-2.4,3.6-2.4,5.7C330.3,225.7,327.3,228.9,323.2,228.9L323.2,228.9L323.2,228.9z"/>
</g>
<path d="M256,512c-5.9,0-11.3-2.4-14.5-6.4c-10.3-13.1-30.3-23.3-53.5-35.2c-31-15.8-69.7-35.3-98.9-70.3
	c-52.8-63.2-60.8-145.6-62-170.1h-8.6c-2.4,0-4.7-0.8-6.4-2.4c-1.7-1.5-2.4-3.5-2.1-5.6c6.9-43.3,21.3-81,42.8-112
	c1.6-2.1,4.2-3.5,7.2-3.5c3,0,5.7,1.3,7.2,3.4c5.1,6.7,12.7,11.7,21.6,14.2c3.3-2.9,6.5-5.9,9.9-8.5c2.4-2,4.7-3.8,7.1-5.4l0.4-0.3
	c9.6-7.3,20-13.8,31.1-19.6l0.8-0.4c1-0.6,2.2-1.1,3.4-1.7c-2.5-16.3-19.5-29.1-39.9-29.1c-0.4,0-0.5,0-0.8,0h-1
	c-1.7,0-3.4-0.3-4.9-1.1l-1.8-1c-2.5-1.4-4.1-3.8-3.9-6.3c0.1-2.5,2.1-4.7,4.7-5.9c26.9-10.8,55.5-15.9,84.8-15.5
	c-6.3-6.7-12.3-12.2-18-15.9c-2.5-1.7-3.7-4.5-2.9-7.3c0.8-2.7,3.5-4.6,6.8-5.2c2.2-0.3,53.1-7.1,96.5,17.3
	c33.4-14.5,68.4-9.8,69.9-9.6c3.3,0.4,5.9,2.5,6.8,5.2c0.8,2.7-0.4,5.4-2.9,7.3c-3.3,2.1-6.5,5-10.1,8.4C357.2,28,388.4,33,418,44.9
	c2.7,1.1,4.6,3.4,4.7,5.9s-1.3,4.9-3.9,6.3l-1.8,1c-1.6,0.8-3.3,1.1-4.9,1.1h-1c-0.4,0-0.5,0-0.8,0c-20.4,0-37.3,12.7-39.9,29.1
	c1.2,0.6,2.2,1.1,3.4,1.7l0.8,0.4c11,5.7,21.3,12.3,31.1,19.6l0.4,0.3c2.4,1.8,4.7,3.6,6.9,5.4c3.5,2.8,6.9,5.7,10.1,8.7
	c8.9-2.5,16.5-7.5,21.6-14.2c1.6-2.1,4.3-3.4,7.2-3.4c3,0,5.7,1.4,7.2,3.5c21.3,31,35.8,68.6,42.8,112c0.4,2-0.4,4.1-2.1,5.6
	c-1.7,1.5-3.9,2.4-6.4,2.4h-8.6c-1.2,24.4-9,106.8-62,170.1c-29.2,34.9-67.9,54.5-98.9,70.3c-23.3,11.7-43.3,21.9-53.5,35.2
	C267.3,509.6,261.9,512,256,512L256,512z M28.3,215.9h7.1c4.7,0,8.4,3.1,8.4,7c0,1,0.8,99.3,59.1,169.3
	c27.1,32.5,62.5,50.4,93.8,66.3c25.1,12.7,46.7,23.6,59,39.5l7.7,3.8l-7.1-3.8c12.3-15.9,34-26.8,59-39.5
	c31.4-15.9,66.7-33.8,93.8-66.3c58.5-70.1,59.1-168.3,59.1-169.3c0-3.9,3.7-7,8.4-7h7.1c-6.4-34.1-17.5-64.2-33.5-89.8
	c-7.7,6.4-17.7,10.9-28.6,12.7c-3,0.6-6-0.4-8.1-2.2c-3.9-3.8-8.1-7.5-12.4-11c-2.2-1.8-4.3-3.5-6.5-5.2l5.4-5.4l-5.5,5.2
	c-8.9-6.7-18.7-12.8-28.8-18.2l-0.7-0.4c-2.4-1.3-4.9-2.5-7.4-3.6c-2.7-1.3-4.2-3.6-4.2-6.1c0.4-18.7,13.9-34.9,33-42.3
	c-25.1-6.4-51.4-8-78.5-4.5c-3.3,0.4-6.5-0.8-8.4-3.1c-1.8-2.4-1.8-5.3,0-7.7c3.7-4.6,7.2-8.7,11-12.3c-12.4,0.4-29.7,2.8-45.5,10.6
	c-2.9,1.4-6.5,1.3-9.4-0.4c-24.1-14.9-52.2-18-70.1-18.3c5.7,5.4,11.5,11.9,17.4,19.3c1.8,2.2,1.8,5.2,0.1,7.4s-4.9,3.6-8.1,3.4
	c-23.8-2.1-46.8-0.3-69.1,5.4c19.2,7.5,32.8,23.6,33,42.3c0,2.5-1.6,4.9-4.2,6.1c-2.5,1.1-4.9,2.4-7.4,3.6l-0.8,0.4
	c-10.1,5.3-19.9,11.5-28.8,18.2l-5.9-5l5.7,5.2c-2.2,1.7-4.3,3.4-6.4,5c-4.3,3.6-8.6,7.3-12.7,11.2c-2.1,2-5.1,2.8-8.1,2.2
	c-10.7-1.8-20.7-6.3-28.6-12.7C45.8,151.7,34.6,181.8,28.3,215.9L28.3,215.9z"/>
<path d="M420.1,139c-2.4,0-4.7-0.8-6.4-2.4c-16-15.5-35.1-28.4-56.2-38.5c-2.7-1.3-4.2-3.6-4.2-6.1c0.4-25.8,25.9-46.8,57-46.8
	c31.5,0,57,21.2,57,47.3c0,22.3-19.2,41.9-45.7,46.4C421.2,138.8,420.7,139,420.1,139z M370.5,88.1c19.5,9.8,37.3,21.9,52.6,36
	c16.2-4.5,27.6-17.2,27.6-31.7c0-18.4-18-33.4-40.3-33.4C390,59.1,373.1,71.8,370.5,88.1z"/>
<path d="M92,139c-0.5,0-1.2,0-1.7-0.1c-26.4-4.5-45.7-24-45.7-46.4c0-26.1,25.6-47.3,57-47.3c31.1,0,56.6,21,57,46.8
	c0,2.5-1.6,4.9-4.2,6.1c-21.2,10.1-40.3,23-56.2,38.5C96.7,138,94.3,139,92,139L92,139z M101.7,59.1c-22.2,0-40.3,14.9-40.3,33.4
	c0,14.5,11.3,27.2,27.6,31.7c15.3-14.1,33-26.3,52.6-36C138.9,71.8,122.1,59.1,101.7,59.1z"/>
<path d="M415.2,134.3c-2.4,0-4.6-0.8-6.3-2.2c-14.1-12.8-30.6-23.9-48.7-32.7c-3.7-1.8-5.2-5.6-3.4-8.9
	c6.8-12.4,21.9-20.5,38.4-20.5c23.3,0,42.1,15.6,42.1,34.9c0,11-6.4,21.5-17.1,28.1C418.7,133.9,417,134.3,415.2,134.3z M376.2,91
	c14.1,7.5,27.3,16.5,39.2,26.4c3.4-3.6,5.1-8,5.1-12.6c0-11.6-11.3-21-25.3-21C387.9,83.8,381.1,86.6,376.2,91L376.2,91z"/>
<path d="M96.8,134.3c-1.7,0-3.5-0.4-5.1-1.4c-10.7-6.6-17.1-17-17.1-28.2c0-19.3,18.8-34.9,42.1-34.9c16.5,0,31.5,8.1,38.4,20.5
	c1.8,3.2,0.4,7.1-3.4,8.9c-18,8.9-34.5,19.8-48.7,32.7C101.4,133.5,99,134.3,96.8,134.3L96.8,134.3z M116.7,83.8
	c-14,0-25.3,9.4-25.3,21c0,4.6,1.8,9.1,5.1,12.6c11.8-9.9,25-18.7,39.2-26.4C131.1,86.6,124.2,83.8,116.7,83.8z"/>
</svg>
