<svg xmlns="http://www.w3.org/2000/svg" viewBox="0 0 491.99 102.12"><defs><style>.cls-1{fill:#0095da;}.cls-1,.cls-2,.cls-3,.cls-4,.cls-5{fill-rule:evenodd;}.cls-2{fill:#ea5a27;}.cls-3{fill:#787a7a;}.cls-4{fill:#0093d7;}.cls-5{fill:#0093d2;}.cls-6{fill:#f15a29;}</style></defs><title>logo</title><g id="Layer_2" data-name="Layer 2"><g id="Layer_6" data-name="Layer 6"><path class="cls-1" d="M408.23,45.53v.12c.06-.42.18-.9.24-1.39l.18-1.44a12.29,12.29,0,0,1,.3-1.44c.12-.48.24-1,.36-1.5a24.31,24.31,0,0,1,2-4.86,23.26,23.26,0,0,1,3-4.51,12,12,0,0,1,4.45-3.18,15.53,15.53,0,0,1,6-1.08,17.25,17.25,0,0,1,6.9,1.32,16.47,16.47,0,0,1,5.47,4,17.62,17.62,0,0,1,3.54,5.95,21.59,21.59,0,0,1,1.14,7.21v1a29.92,29.92,0,0,1-1.68,8.17,19.19,19.19,0,0,1-3.6,6.12,15,15,0,0,1-5,3.79A15.46,15.46,0,0,1,425.23,65a17.73,17.73,0,0,1-6.79-1.26A16.15,16.15,0,0,1,413,59.94a15.52,15.52,0,0,1-3.54-6.12,26.86,26.86,0,0,1-1.2-8.29Zm-6.19,0v.12A25.24,25.24,0,0,0,403.3,54,14.32,14.32,0,0,0,407,60.12a27.37,27.37,0,0,0,5.28,4.09,19.62,19.62,0,0,0,5.77,2.28l1.56.36a14,14,0,0,0,1.56.24,13.65,13.65,0,0,0,1.56.12,12.21,12.21,0,0,0,1.51.06h1a25.7,25.7,0,0,0,8.35-1.38A24.12,24.12,0,0,0,441,61.62a17.3,17.3,0,0,0,5.23-6.78A22,22,0,0,0,447.93,46v-.78a10.24,10.24,0,0,1-.06-1.38c-.06-.43-.12-.91-.18-1.39-.06-.24-.06-.48-.12-.72s-.06-.48-.12-.72-.06-.42-.12-.66l-.18-.72A19,19,0,0,0,445,34.05a24.87,24.87,0,0,0-4-5,15.57,15.57,0,0,0-6.3-3.72,35.14,35.14,0,0,0-9.49-1.45,27.35,27.35,0,0,0-9.61,1.51,17.48,17.48,0,0,0-7,4.62,25.65,25.65,0,0,0-4.51,6.37,20.52,20.52,0,0,0-2,7,2.11,2.11,0,0,0-.06.6,2.14,2.14,0,0,0-.06.61v1ZM388.77,24.69V66.31a2,2,0,0,0,.6-.06,2.25,2.25,0,0,0,.6-.06c.24-.06.48-.06.72-.12h1.08a.76.76,0,0,1,.36.06h.3a.76.76,0,0,0,.36.06,2.25,2.25,0,0,0,.66.06,1.66,1.66,0,0,0,.54.06V24.8c-.18.06-.36.06-.54.12l-.72.19h-.36a.65.65,0,0,1-.3.06h-1.44a2.25,2.25,0,0,1-.66-.06,4.76,4.76,0,0,1-.6-.19,3,3,0,0,1-.6-.23Zm-26,41.62V27.51a7.49,7.49,0,0,1-1.26.12l-1.62.18c-.6.06-1.2.06-1.81.12s-1.26.18-1.92.24a2.69,2.69,0,0,1-.66.06c-.24.06-.48.06-.66.12a2,2,0,0,1-.6.06,2.69,2.69,0,0,1-.66.06c-.42.06-.78.06-1.14.12s-.78.18-1.14.24-.66.06-1,.12-.55.06-.78.12c.05-.06.05-.18.12-.3a.36.36,0,0,1,.06-.24.42.42,0,0,1,.05-.24.57.57,0,0,1,.07-.3v-.6a.25.25,0,0,1,.05-.18v-.84a5,5,0,0,0-.12-.49,2.32,2.32,0,0,1-.05-.59c-.06-.18-.13-.3-.18-.49l31.65-.11a1,1,0,0,0-.06.36c-.06.12-.06.24-.12.3s-.06.18-.06.24v.23a.71.71,0,0,0-.06.31.36.36,0,0,0-.06.24v1a2,2,0,0,0,.06.6c.06.18.12.3.18.48s.06.42.12.6c-1.38-.24-2.76-.48-4.09-.66s-2.58-.3-3.78-.42-2.22-.24-3.12-.3-1.68-.06-2.23-.06V66.31h-.23a.47.47,0,0,1-.31-.06.45.45,0,0,1-.3-.06h-.3c-.18-.06-.42-.06-.6-.12h-1a.45.45,0,0,0-.3.06h-.36a.76.76,0,0,1-.36.06,115186897330375.1,115186897330375.1,0,0,0-1.44.12Zm-35.3-19.4,6.13-14.66,6.12,14.66ZM314.1,66.31h2l.06-.06h.3c.06,0,.06,0,.12-.06h1.14a.22.22,0,0,0,.18.06h.42a.22.22,0,0,0,.18.06h.36L325,49.73h14.65l6.61,16.58h.84a1.17,1.17,0,0,0,.42-.06,1.17,1.17,0,0,0,.42-.06h1.44a.45.45,0,0,0,.3.06h.9a.45.45,0,0,0,.3.06h2.05L334.41,24.2H333L314.1,66.31ZM302.69,24.69V66.31a2,2,0,0,0,.6-.06,2.25,2.25,0,0,0,.6-.06c.24-.06.48-.06.72-.12h1.09a.76.76,0,0,1,.36.06h.3a.76.76,0,0,0,.36.06,2.25,2.25,0,0,0,.66.06,1.66,1.66,0,0,0,.54.06V24.8c-.18.06-.36.06-.54.12l-.72.19h-.36a.65.65,0,0,1-.3.06h-1.45a2.25,2.25,0,0,1-.66-.06,4.76,4.76,0,0,1-.6-.19,3,3,0,0,1-.6-.23ZM276.64,66.31a3,3,0,0,0,.73-.06,2.92,2.92,0,0,0,.72-.06.76.76,0,0,0,.36-.06h.36a.45.45,0,0,1,.3-.06h1c.18.06.42.06.6.12h.3a.45.45,0,0,0,.3.06.45.45,0,0,0,.3.06h.24V27.63c.54,0,1.32,0,2.22.06s1.93.18,3.13.3,2.46.24,3.78.42,2.7.42,4.09.66c-.07-.18-.07-.42-.13-.6s-.11-.3-.18-.48a2.43,2.43,0,0,1,0-.6v-1a.42.42,0,0,1,0-.24.57.57,0,0,1,.07-.3v-.24c0-.06,0-.19,0-.24s.06-.18.12-.3a.89.89,0,0,1,.07-.36l-31.66.11c.06.19.12.31.18.49a1.94,1.94,0,0,0,.06.59c.06.19.06.31.12.49v.84a.22.22,0,0,0-.06.18V28a.65.65,0,0,0-.06.3,36992565035916.38,36992565035916.38,0,0,1-.12.48c-.06.12-.06.24-.12.3.24-.06.48-.06.78-.12s.6-.06,1-.12.72-.18,1.14-.24.72-.06,1.15-.12a2.69,2.69,0,0,0,.66-.06,2,2,0,0,0,.6-.06c.18-.06.42-.06.66-.12a2.69,2.69,0,0,0,.66-.06c.66-.06,1.26-.18,1.92-.24s1.2-.06,1.8-.12l1.62-.18a7.49,7.49,0,0,0,1.26-.12v38.8Zm-54.8-20.78v.12c.06-.42.18-.9.24-1.39s.12-1,.19-1.44a12.24,12.24,0,0,1,.29-1.44c.13-.48.24-1,.36-1.5a25,25,0,0,1,2-4.86,23.26,23.26,0,0,1,3-4.51,11.84,11.84,0,0,1,4.44-3.18,15.6,15.6,0,0,1,6-1.08,17.3,17.3,0,0,1,6.91,1.32,16.68,16.68,0,0,1,5.47,4,17.62,17.62,0,0,1,3.54,5.95,21.59,21.59,0,0,1,1.14,7.21v1a29.92,29.92,0,0,1-1.68,8.17,19.19,19.19,0,0,1-3.6,6.12,15.22,15.22,0,0,1-5,3.79A15.51,15.51,0,0,1,238.84,65a17.81,17.81,0,0,1-6.79-1.26,16,16,0,0,1-5.46-3.79A15.66,15.66,0,0,1,223,53.82a27.16,27.16,0,0,1-1.2-8.29Zm-6.18,0v.12A25.24,25.24,0,0,0,216.92,54a14.4,14.4,0,0,0,3.72,6.12,27.73,27.73,0,0,0,5.29,4.09,19.56,19.56,0,0,0,5.76,2.28l1.57.36a14,14,0,0,0,1.56.24,13.65,13.65,0,0,0,1.56.12,12,12,0,0,0,1.5.06h1a25.66,25.66,0,0,0,8.35-1.38,24.17,24.17,0,0,0,7.39-4.27,17.49,17.49,0,0,0,5.23-6.78A22,22,0,0,0,261.55,46v-.78a10.24,10.24,0,0,1-.06-1.38c-.06-.43-.12-.91-.18-1.39-.06-.24-.06-.48-.12-.72s-.06-.48-.12-.72-.06-.42-.12-.66l-.18-.72a18.79,18.79,0,0,0-2.17-5.53,25.16,25.16,0,0,0-4-5,15.55,15.55,0,0,0-6.31-3.72,35,35,0,0,0-9.49-1.45,27.39,27.39,0,0,0-9.61,1.51,17.51,17.51,0,0,0-7,4.62,25.4,25.4,0,0,0-4.51,6.37,20.52,20.52,0,0,0-2,7,2.11,2.11,0,0,0-.06.6,2.14,2.14,0,0,0-.06.61v1ZM169.77,46v.12a23.51,23.51,0,0,0,1.5,8.71,19.14,19.14,0,0,0,4.44,6.79,17.81,17.81,0,0,0,7,4.32,28.62,28.62,0,0,0,9.13,1.38H193a13.58,13.58,0,0,0,1.5-.06l1.81-.18c.66-.06,1.38-.12,2-.24s1.32-.18,2-.3,1.56-.18,2.28-.3,1.44-.24,2.17-.42c.36-.06.72-.18,1-.24a5.28,5.28,0,0,0,.9-.3c.3-.06.54-.18.84-.24s.48-.18.66-.24h.06l.06-.06h.06c.06,0,.06,0,.12-.06a.22.22,0,0,1,.06-.18V47c-.24.06-.48.06-.72.12s-.48.12-.66.18a2,2,0,0,1-.6.06h-1.26a1.38,1.38,0,0,1-.49-.06,1.32,1.32,0,0,1-.48-.06.37.37,0,0,1-.24-.06.36.36,0,0,1-.24-.06c-.11-.06-.24-.06-.3-.12a.45.45,0,0,1-.24-.12V62.65a8.83,8.83,0,0,1-1.68,1,11.27,11.27,0,0,1-2.4.78,20.37,20.37,0,0,1-2.76.42,26.34,26.34,0,0,1-3.07.18,18.12,18.12,0,0,1-7.15-1.38,15.47,15.47,0,0,1-5.64-4.09A18.22,18.22,0,0,1,177,53.16a23.47,23.47,0,0,1-1.14-7.63V44.21a24.19,24.19,0,0,1,1.38-6.79,14.27,14.27,0,0,1,2.95-4.87,22.56,22.56,0,0,1,4-3.3,16.78,16.78,0,0,1,4.27-1.86,10.45,10.45,0,0,1,1.32-.3l1.2-.18,1.26-.18h1.14A21.76,21.76,0,0,1,197,27a12.52,12.52,0,0,1,2.88.84A21.21,21.21,0,0,1,202.2,29a17.78,17.78,0,0,1,1.92,1.26l.9.72.73.72a6.35,6.35,0,0,0,.72.6,2.93,2.93,0,0,0,.66.42l1.92-5.1c-1.32-.66-2.64-1.26-3.9-1.8a36.1,36.1,0,0,0-3.91-1.14c-1.32-.31-2.64-.48-3.9-.67s-2.65-.18-3.91-.18l-2.1.18c-.78.06-1.62.19-2.46.3s-1.68.3-2.53.48a24,24,0,0,0-2.64.79,18.92,18.92,0,0,0-4.8,2.4,23.7,23.7,0,0,0-4.45,3.84,16,16,0,0,0-3.24,5.83A32,32,0,0,0,169.77,46ZM142.42,66.31h22.22c-.06-.06-.06-.12-.12-.24a2.93,2.93,0,0,1-.18-.42,1.32,1.32,0,0,1-.06-.48v-1a1.32,1.32,0,0,1,.06-.48c.06-.18.12-.42.18-.6s.06-.3.12-.48c-.48.06-1,.06-1.62.12s-1.26.18-2,.24-1.51.06-2.29.12-1.56.06-2.34.12h-1a1.66,1.66,0,0,1-.54.06h-3.73a7,7,0,0,1-1.14-.06,5.49,5.49,0,0,1-1-.06l-.9-.18V46h7.57l7.09.6c-.06-.18-.06-.42-.12-.6s-.12-.3-.18-.48v-.24a.45.45,0,0,1-.06-.3V44a1.14,1.14,0,0,1,.06-.42,3.73,3.73,0,0,0,.18-.43c.06-.12.06-.3.12-.48l-5.65.48h-9V28.59h2.58a1.32,1.32,0,0,0,.48-.06h2.47a1.17,1.17,0,0,0,.42-.06h4.5c.66.06,1.26.06,1.93.12l1.92.18c.6.06,1.2.18,1.8.3a.36.36,0,0,1-.06-.24c-.06-.06-.06-.18-.12-.3a2055142501970.74,2055142501970.74,0,0,1-.12-.48,1.32,1.32,0,0,1-.06-.48v-1a1348639440526.23,1348639440526.23,0,0,0,.12-.36v-.12a3.82,3.82,0,0,0,.12-.42c.06-.12.06-.3.12-.48H142.42V66.31Zm313.08,0a2,2,0,0,0,.6-.06,1.32,1.32,0,0,0,.48-.06.36.36,0,0,0,.24-.06h.3a.36.36,0,0,1,.24-.06h.72a3.82,3.82,0,0,0,.42.12,1.17,1.17,0,0,0,.42.06.76.76,0,0,0,.36.06V33.69l29.38,32.62H491V3.52h-3.79V56.4L458.38,24.69H455.5V66.31ZM100.77,87.59V33.69l29.37,32.62h2.34V24.8c-.12.06-.24.06-.36.12l-.54.19h-.24a.36.36,0,0,1-.24.06h-1a1.66,1.66,0,0,1-.54-.06,2.09,2.09,0,0,1-.42-.19,1.06,1.06,0,0,1-.42-.23V56.4L99.87,24.69H97v62.9Z"/><path class="cls-2" d="M96.48,0H491V3.51H96.48V0ZM97,87.5H290.36v3.71H97Z"/><path class="cls-3" d="M478,91.29a4.79,4.79,0,0,0,2,4.07,8.27,8.27,0,0,0,5,1.39,10.71,10.71,0,0,0,2.52-.29,7.79,7.79,0,0,0,2.26-.89A4.86,4.86,0,0,0,491.39,94a4.42,4.42,0,0,0,.6-2.33,4.15,4.15,0,0,0-.4-1.91,3.69,3.69,0,0,0-1.13-1.29,6.57,6.57,0,0,0-1.56-.8,17.61,17.61,0,0,0-2-.58l-1.1-.24a15.52,15.52,0,0,1-3-.87,1.46,1.46,0,0,1-1-1.41,1.11,1.11,0,0,1,.29-.8,1.83,1.83,0,0,1,.73-.5,3.22,3.22,0,0,1,.92-.25,7.43,7.43,0,0,1,.91-.06,4.35,4.35,0,0,1,2.12.47A2.23,2.23,0,0,1,487.87,85h3.61a5.16,5.16,0,0,0-.73-2.2,5,5,0,0,0-1.49-1.54,8,8,0,0,0-4.34-1.09,11.78,11.78,0,0,0-2.29.23,7.18,7.18,0,0,0-2.11.76A4.33,4.33,0,0,0,479,82.61a3.59,3.59,0,0,0-.59,2.09,4.21,4.21,0,0,0,.41,2A3.57,3.57,0,0,0,479.89,88a5.69,5.69,0,0,0,1.54.82,18.64,18.64,0,0,0,2,.55l1.1.24a14.73,14.73,0,0,1,3,.88,1.65,1.65,0,0,1,1,1.49,1.6,1.6,0,0,1-.33,1,2.08,2.08,0,0,1-.88.64,4.91,4.91,0,0,1-1.12.31A9,9,0,0,1,485,94a4.31,4.31,0,0,1-2.45-.65,2.62,2.62,0,0,1-1.1-2.08Zm-25.21-8.07h2.61v9.25a4.71,4.71,0,0,0,.92,3.07c.58.63,1.72.94,3.42.94.34,0,.84,0,1.49-.09l.76-.09V93.63a6.6,6.6,0,0,1-1.46.12c-.71,0-1.17-.16-1.37-.47a3.4,3.4,0,0,1-.3-1.69V83.22H462V80.63h-3.13v-4.7h-3.46v4.7h-2.61v2.59ZM427.33,96.33h3.46V88.86a6,6,0,0,1,1.2-4A3.81,3.81,0,0,1,435,83.49a11.44,11.44,0,0,1,1.16.09l.33.06V80.3l-.21,0a9.11,9.11,0,0,0-1.1-.06,4.06,4.06,0,0,0-1.51.3,5.81,5.81,0,0,0-1.41.81,4.72,4.72,0,0,0-1.08,1.11,3.67,3.67,0,0,0-.58,1.24h-.06v-3h-3.25v15.7ZM399.78,87.1a4.28,4.28,0,0,1,1.21-3,3.9,3.9,0,0,1,2.92-1.19,3.52,3.52,0,0,1,2.77,1.22,4.65,4.65,0,0,1,1.17,2.94Zm11.53,2.28a11.27,11.27,0,0,0,.06-1.16,9.09,9.09,0,0,0-.51-3,7.79,7.79,0,0,0-1.52-2.58,7.12,7.12,0,0,0-5.43-2.4,7.37,7.37,0,0,0-3.11.65,7.13,7.13,0,0,0-2.42,1.81,8,8,0,0,0-1.53,2.66,9.5,9.5,0,0,0-.53,3.17,8.67,8.67,0,0,0,2,6A7.21,7.21,0,0,0,404,96.75a7.68,7.68,0,0,0,4.6-1.41,6.3,6.3,0,0,0,2.5-3.93h-3.28A3.67,3.67,0,0,1,404,94a3.79,3.79,0,0,1-3.13-1.34,5,5,0,0,1-1.09-3.3Zm-45.07,12.74h3.46V94.29h.07A4.68,4.68,0,0,0,372,96.14a7.57,7.57,0,0,0,3,.61,6.37,6.37,0,0,0,3-.67,5.9,5.9,0,0,0,2.14-1.82,8.15,8.15,0,0,0,1.25-2.62,11.56,11.56,0,0,0,.41-3.08,9.29,9.29,0,0,0-1.9-6,7.31,7.31,0,0,0-8.32-1.73,4.42,4.42,0,0,0-2,1.93h-.06V80.63h-3.28v21.49ZM378.32,88.5a8.65,8.65,0,0,1-.24,2,5.61,5.61,0,0,1-.76,1.77A3.72,3.72,0,0,1,376,93.57a4.19,4.19,0,0,1-2,.45,3.84,3.84,0,0,1-3.21-1.55,6.33,6.33,0,0,1-1.19-4,6.54,6.54,0,0,1,1.14-4.07A3.87,3.87,0,0,1,374,82.94a3.68,3.68,0,0,1,3.19,1.63,6.59,6.59,0,0,1,1.15,3.93Zm-43.55,7.83h4.07l3.86-5.8,4,5.8h4.16l-6-8.44,5.34-7.26h-4l-3.43,4.83-3.28-4.83h-4.19l5.43,7.44-5.92,8.26ZM309.92,87.1a4.29,4.29,0,0,1,1.22-3,3.88,3.88,0,0,1,2.91-1.19,3.56,3.56,0,0,1,2.78,1.22A4.71,4.71,0,0,1,318,87.1Zm11.54,2.28a11.27,11.27,0,0,0,.06-1.16,8.86,8.86,0,0,0-.52-3,7.62,7.62,0,0,0-1.52-2.58,7.12,7.12,0,0,0-5.43-2.4,7.4,7.4,0,0,0-3.11.65,7.23,7.23,0,0,0-2.42,1.81A8.34,8.34,0,0,0,307,85.33a9.5,9.5,0,0,0-.53,3.17,8.67,8.67,0,0,0,2,6,7.21,7.21,0,0,0,5.65,2.27,7.68,7.68,0,0,0,4.6-1.41,6.3,6.3,0,0,0,2.5-3.93H318A3.66,3.66,0,0,1,314.14,94,3.79,3.79,0,0,1,311,92.68a5.08,5.08,0,0,1-1.09-3.3Z"/><path class="cls-2" d="M73.12,15.3l.06.06-4.47,6.87L30.08,81.57l-4.47,6.86L19,75.59,67.78,21.24Z"/><path class="cls-4" d="M67.2,20.59l5.94-5.34-.07-.06-6.86,4.47L6.87,58.29,0,62.76l12.84,6.66L67.2,20.59ZM69.44,23a36.61,36.61,0,0,1-27.8,60.43c-1,0-1.9,0-2.84-.11Z"/><path class="cls-5" d="M4.4,50.9,64,18.82A36.61,36.61,0,0,0,4.22,48.07c0,.94.09,1.89.18,2.83Zm67.2-36,.07.06"/><circle class="cls-6" cx="239.1" cy="45.2" r="4.25"/></g></g></svg>