<?xml version="1.0" encoding="utf-8"?>
<!-- Generator: Adobe Illustrator 23.1.1, SVG Export Plug-In . SVG Version: 6.00 Build 0)  -->
<svg version="1.1" id="Layer_1" xmlns="http://www.w3.org/2000/svg" xmlns:xlink="http://www.w3.org/1999/xlink" x="0px" y="0px"
	 viewBox="0 0 512 512" style="enable-background:new 0 0 512 512;" xml:space="preserve">
<style type="text/css">
	.st0{fill:#F9BD55;}
	.st1{fill:#F4DBCE;}
	.st2{fill:#7D3D1A;}
	.st3{fill:#F98080;}
</style>
<g>
	<path class="st0" d="M456.8,249.4c-4.7-13.1-8.2-26.7-8.9-40.9C442.7,107.4,359.2,26.9,257,26.9S71.1,107.4,66.1,208.5
		c-0.7,14-4.2,27.6-8.9,40.9c-4.9,13.6-7.5,27.9-7.5,42.8c0,55.2,36.2,103.8,91.2,132.4c-9.6-18.3-7.3-41.1,5.1-58
		c15.2-20.6,42.3-28.5,65.9-19.6c-3.5,2.4-5.6,5.6-5.6,10c0,15.5,26,37.7,50.8,37.7s50.8-22.2,50.8-37.7c0-4.4-2.1-7.7-5.6-10
		c23.6-8.9,50.7-1.2,65.9,19.6c12.6,16.9,14.7,39.7,5.1,58c55-28.8,91.2-77.4,91.2-132.4C464.4,277.3,461.7,263,456.8,249.4
		L456.8,249.4z"/>
	<path class="st0" d="M426.3,8.9c-31.1,0-57.3,20.3-66.6,48.2c33.7,21.7,60.1,53.5,74.9,91.4c34.6-4.2,61.5-33.7,61.5-69.5
		C496.3,40.1,464.9,8.9,426.3,8.9z"/>
	<path class="st0" d="M152.5,57.9c-8.9-28.5-35.5-49.1-66.9-49.1c-38.6,0-70,31.3-70,70c0,36.3,27.8,66.2,63.2,69.7
		C93.5,111.2,119.4,79.6,152.5,57.9z"/>
	<path class="st1" d="M367.9,366.6c-15.2-20.6-42.3-28.5-65.9-19.6c3.5,2.4,5.6,5.6,5.6,10c0,15.5-26,37.7-50.8,37.7
		S206,372.6,206,357c0-4.4,2.1-7.7,5.6-10c-23.6-8.9-50.7-1.2-65.9,19.6c-13.8,18.9-15.2,44.7-1.6,63.9c14,19.7,38.8,27.6,61,20.1
		l51.7-17.3l51.7,17.3c22.2,7.3,47.2-0.3,61-20.1C383.1,411.3,381.9,385.5,367.9,366.6L367.9,366.6z"/>
	<path class="st1" d="M309.1,450.6l-51.7-17.3l-51.7,17.3c-9.4,3.1-19.4,3.5-28.8,1.4c14,30.2,44.5,51.2,80,51.2s66-21,80-51
		C327.9,454.1,318.3,453.6,309.1,450.6z"/>
	<path class="st2" d="M307.8,357.2c0,15.5-26,37.7-50.8,37.7c-24.8,0-50.8-22.2-50.8-37.7s26-16.8,50.8-16.8
		C281.6,340.2,307.8,341.5,307.8,357.2z"/>
	<path class="st3" d="M426.3,58.1c-16.2,0-30.6,7.9-39.5,19.9c20.8,19.4,37.4,43.3,48,70.4c11.4-1.4,21.7-5.4,30.7-11.5
		c6.3-8.2,10-18.5,10-29.7C475.5,80.1,453.5,58.1,426.3,58.1L426.3,58.1z"/>
	<path class="st3" d="M125.8,79.1c-8.9-12.6-23.6-21-40.2-21c-27.3,0-49.3,22-49.3,49.3c0,11.2,3.7,21.3,10,29.7
		c9.4,6.5,20.4,10.5,32.5,11.7C89.3,121.9,105.6,98.3,125.8,79.1L125.8,79.1z"/>
	<path d="M256.8,403.6c-27.9,0-59.6-24.8-59.6-46.5c0-25.5,37.4-25.5,59.6-25.5c22.4,0,59.6,0,59.6,25.5
		C316.6,378.8,284.8,403.6,256.8,403.6z M256.8,349c-27.9,0-42.1,2.8-42.1,8c0,10.1,21.7,29,42.1,29c20.4,0,42.1-18.9,42.1-29
		C299.1,351.8,285,349,256.8,349z"/>
	<path d="M188,462.2c-19.9,0-39-9.6-51-26.7c-15.4-22-14.7-51.7,1.7-74.1c17.3-23.6,48.6-32.8,76-22.5c3,1.2,5.2,3.8,5.6,7.2
		c0.3,3.3-1,6.5-3.7,8.2c-1.9,1.2-1.9,2.1-1.9,2.8c0,10.1,21.7,29,42.1,29c20.4,0,42.1-18.9,42.1-29c0-0.7,0-1.6-1.9-2.8
		c-2.6-1.9-4.2-5.1-3.7-8.2c0.3-3.3,2.6-5.9,5.6-7.2c27.4-10.3,58.5-1,76,22.5l-7,5.2l7-5.2c16.4,22.4,17.1,52.1,1.7,74.1
		c-16.1,22.9-44.5,32.1-70.9,23.4l-48.9-16.2l-48.9,16.2C201.3,461.1,194.6,462.2,188,462.2L188,462.2z M191.7,352.1
		c-15,0-29.7,7-39,19.6c-12.1,16.2-12.6,37.9-1.6,53.6c11.5,16.4,32.1,23.2,51.2,16.9L254,425c1.7-0.5,3.7-0.5,5.6,0l51.7,17.3
		c19,6.3,39.5-0.5,51.2-16.9c11.2-15.7,10.5-37.4-1.6-53.6c-10.5-14.1-27.8-21.3-44.9-19.2c0.3,1.6,0.5,3.1,0.5,4.5
		c0,21.7-31.8,46.5-59.6,46.5s-59.6-24.8-59.6-46.5c0-1.4,0.2-3,0.5-4.5C195.7,352.3,193.8,352.1,191.7,352.1L191.7,352.1z"/>
	<path d="M256.8,441.7c-4.9,0-8.7-3.8-8.7-8.7v-32c0-4.9,3.8-8.7,8.7-8.7c4.9,0,8.7,3.8,8.7,8.7v32.1
		C265.6,437.9,261.7,441.7,256.8,441.7z"/>
	<path d="M257,512c-37.6,0-72.1-22-88-56.2c-1.4-3-0.9-6.6,1-9.1c2.1-2.6,5.4-3.8,8.7-3c8,1.7,16.4,1.4,24.1-1.2l51.7-17.3
		c1.7-0.5,3.7-0.5,5.6,0l51.7,17.3l0,0c7.5,2.4,15.5,3,23.2,1.4c3.3-0.7,6.6,0.5,8.6,3.1c2.1,2.6,2.4,6.1,1,9.1
		C329,489.9,294.4,512,257,512L257,512z M192.9,462c14.8,20.1,38.6,32.5,64.1,32.5s49.4-12.4,64.1-32.7c-5.1-0.3-10-1.4-14.7-3l0,0
		l-48.9-16.2l-48.9,16.2C203.4,460.6,198.1,461.6,192.9,462z"/>
	<path d="M220.5,348.1c-1.4,0-2.8-0.3-4-1c-4.2-2.3-5.9-7.5-3.7-11.9c10.7-20.1,14-42.6,9.6-66.9c-0.9-4.7,2.3-9.3,7.2-10.1
		c4.7-0.9,9.3,2.3,10.1,7c4.9,27.8,1,54.9-11.4,78.1C226.8,346.5,223.6,348.1,220.5,348.1L220.5,348.1z"/>
	<path d="M293.2,348.1c-3.1,0-6.1-1.7-7.7-4.7c-12.4-23.2-16.4-50.3-11.4-78.1c0.9-4.7,5.4-7.9,10.1-7.2c4.7,0.9,7.9,5.4,7,10.1
		c-4.4,24.3-1,46.8,9.6,66.9c2.3,4.2,0.7,9.6-3.7,11.9C296,347.7,294.6,348.1,293.2,348.1z"/>
	<path d="M141.2,253.8c-4.9,0-8.7-3.8-8.7-8.7c0-8,3.1-15.7,8.9-21.5c5.8-5.8,13.3-8.9,21.5-8.9h0.2c8,0,15.7,3.1,21.3,8.9
		c5.8,5.8,8.9,13.3,8.9,21.5c0,4.9-3.8,8.7-8.7,8.7l0,0c-4.9,0-8.7-3.8-8.7-8.7c0-3.5-1.4-6.6-3.8-9.1c-2.4-2.4-5.6-3.7-9.1-3.7l0,0
		c-3.5,0-6.6,1.4-9.1,3.8s-3.7,5.8-3.7,9.1C149.9,249.7,146.1,253.8,141.2,253.8L141.2,253.8L141.2,253.8z"/>
	<path d="M329.3,253.8c-4.9,0-8.7-3.8-8.7-8.7c0-8,3.1-15.7,8.9-21.5c5.8-5.8,13.3-8.9,21.5-8.9h0.2c8,0,15.7,3.1,21.3,8.9
		c5.8,5.8,8.9,13.3,8.9,21.5c0,4.9-3.8,8.7-8.7,8.7l0,0c-4.9,0-8.7-3.8-8.7-8.7c0-3.5-1.4-6.6-3.8-9.1c-2.4-2.4-5.6-3.7-9.1-3.7l0,0
		c-7.2,0-12.9,5.8-12.9,12.9C338.1,249.7,334,253.8,329.3,253.8L329.3,253.8L329.3,253.8z"/>
	<path d="M332.3,389.7c-3.7,0-7-2.3-8.2-5.9c-1.6-4.5,0.9-9.6,5.6-11l36.2-12.1c4.5-1.6,9.6,0.9,11,5.6c1.4,4.7-0.9,9.6-5.6,11
		l-36.2,12.1C334.2,389.5,333.3,389.7,332.3,389.7z"/>
	<path d="M372.5,425.7c-0.3,0-0.7,0-1,0l-36.2-4c-4.7-0.5-8.2-4.9-7.7-9.6c0.5-4.7,4.9-8.2,9.6-7.7l36.2,4c4.7,0.5,8.2,4.9,7.7,9.6
		C380.7,422.3,376.8,425.7,372.5,425.7z"/>
	<path d="M184,389.7c-0.9,0-1.9-0.2-2.8-0.5L145,377.1c-4.5-1.6-7-6.5-5.6-11s6.5-7,11-5.6l36.2,12.1c4.5,1.6,7,6.5,5.6,11
		C191,387.4,187.7,389.7,184,389.7z"/>
	<path d="M143.8,425.7c-4.4,0-8.2-3.3-8.7-7.7c-0.5-4.7,3-9.1,7.7-9.6l36.2-4c4.7-0.5,9.1,3,9.6,7.7c0.5,4.7-3,9.1-7.7,9.6l-36.2,4
		C144.5,425.7,144.2,425.7,143.8,425.7z"/>
	<path d="M373.2,433.3c-2.3,0-4.5-0.9-6.1-2.6c-2.6-2.6-3.3-6.8-1.6-10.3c7.9-15.2,6.3-34.4-4.4-48.9
		c-10.5-14.1-27.8-21.3-44.9-19.2c0.3,1.6,0.5,3.1,0.5,4.5c0,21.7-31.8,46.5-59.6,46.5s-59.6-24.8-59.6-46.5c0-1.4,0.2-3,0.5-4.5
		c-17.1-2.1-34.4,4.9-44.9,19.2c-10.7,14.5-12.4,33.5-4.4,48.9c1.7,3.3,1,7.5-1.6,10.3c-2.6,2.6-6.8,3.3-10.3,1.6
		C76.9,400.9,41.1,348.4,41.1,292c0-15.5,2.6-30.9,8-45.6c5.1-14.1,7.9-26.7,8.4-38.3c5.4-106.6,93.3-190.1,199.7-190.1
		s194.2,83.5,199.7,190.1c0.5,11.7,3.3,24.1,8.4,38.3c5.2,14.8,8,30.2,8,45.6c0,56.4-35.8,108.8-95.9,140.3
		C376,433,374.6,433.3,373.2,433.3L373.2,433.3z M322,334.6c20.4,0,40.4,9.6,52.9,26.7c9.6,13.1,14,29.2,12.4,44.5
		c43-28.6,68.1-70,68.1-113.9c0-13.5-2.3-26.9-7-39.8c-5.6-15.7-8.7-29.9-9.4-43.3C434,111.6,354,35.4,256.8,35.4
		S79.5,111.9,74.6,209c-0.7,13.5-3.8,27.6-9.4,43.3c-4.5,12.9-7,26.2-7,39.8c0,43.8,25.2,85.2,68.1,113.9
		c-1.4-15.5,2.8-31.4,12.4-44.5c17.3-23.6,48.6-32.8,76-22.5c3,1.2,5.2,3.8,5.6,7.2s-1,6.5-3.7,8.2c-1.9,1.2-1.9,2.1-1.9,2.8
		c0,10.1,21.7,29,42.1,29c20.4,0,42.1-18.9,42.1-29c0-0.7,0-1.6-1.9-2.8c-2.6-1.9-4.2-5.1-3.7-8.2c0.3-3.3,2.6-5.9,5.6-7.2
		C306.6,336,314.3,334.6,322,334.6L322,334.6z"/>
	<path d="M434.8,157c-3.5,0-6.8-2.1-8-5.6c-14-35.5-39.5-66.6-71.6-87.2c-3.3-2.1-4.9-6.3-3.5-10.1C362.3,21.6,392.4,0,426.5,0
		c43.5,0,78.8,35.3,78.8,78.8c0,39.8-29.7,73.4-69.2,78.1C435.5,157,435.2,157,434.8,157z M370.4,53.6
		c30.4,21.1,54.9,50.8,69.7,84.9c27.4-6.3,47.3-30.9,47.3-59.6c0-33.7-27.4-61.3-61.3-61.3C402,17.6,380.3,31.9,370.4,53.6z"/>
	<path d="M78.8,157.3c-0.3,0-0.5,0-0.9,0c-40.5-3.8-71.1-37.6-71.1-78.4c0-43.5,35.3-78.8,78.8-78.8c34.6,0,64.8,22.2,75.1,55.2
		c1.2,3.7-0.3,7.7-3.5,10c-32,21-56.2,50.8-70.2,86.5C85.6,155.1,82.5,157.3,78.8,157.3L78.8,157.3z M85.6,17.6
		c-33.7,0-61.3,27.4-61.3,61.3c0,29.5,20.6,54.3,49.1,60.1c14.7-34.1,38.3-62.9,68.5-84.4C132.3,32.3,110.5,17.6,85.6,17.6z"/>
	<path d="M449.3,337.3c-20.4,0-37-16.6-37-37c0-20.4,16.6-37,37-37c6.3,0,12.6,1.6,18,4.7c2.4,1.4,4,3.7,4.4,6.5
		c0.9,5.9,1.2,11.9,1.2,17.8c0,12.4-1.7,24.8-5.2,36.9c-0.7,2.6-2.6,4.7-5.2,5.8C458.4,336.4,453.9,337.3,449.3,337.3L449.3,337.3z
		 M449.3,280.7c-10.8,0-19.6,8.7-19.6,19.6c0,10.8,8.7,19.6,19.6,19.6c1,0,1.9,0,3-0.2c2.1-8.9,3.3-18.2,3.3-27.3
		c0-3.5-0.2-7.2-0.5-10.7C453.2,280.8,451.4,280.7,449.3,280.7z"/>
	<path d="M329.2,162.1c-14.5,0-26.4-11.9-26.4-26.4s11.9-26.4,26.4-26.4s26.4,11.9,26.4,26.4S343.7,162.1,329.2,162.1z M329.2,126.6
		c-4.9,0-8.9,4-8.9,8.9c0,4.9,4,8.9,8.9,8.9c4.9,0,8.9-4,8.9-8.9C338.1,130.6,334,126.6,329.2,126.6z"/>
	<path d="M322,80.7c-17.5,0-31.8-14.1-31.8-31.8c0-8.2,3.1-15.9,8.7-21.8c2.3-2.3,5.4-3.3,8.6-2.4c14.5,3.8,28.5,9.1,41.6,16.1
		c2.8,1.4,4.5,4.4,4.7,7.5c0,0.2,0,0.3,0,0.7C353.8,66.5,339.5,80.7,322,80.7z M308.9,43.3c-0.9,1.7-1.2,3.7-1.2,5.8
		c0,7.9,6.5,14.3,14.3,14.3c6.3,0,11.7-4,13.5-9.8C327.1,49.4,318.2,45.9,308.9,43.3L308.9,43.3z"/>
	<path d="M398.2,140.7c-21.3,0-38.8-17.5-38.8-38.8c0-14.3,7.9-27.4,20.6-34.2c3.3-1.7,7.2-1.2,10,1.2
		c15.5,13.8,28.6,29.9,39.1,47.5c1.9,3.1,1.6,7.2-0.7,10C420.9,135.5,409.9,140.7,398.2,140.7L398.2,140.7z M383.3,86.6
		c-4.2,4-6.5,9.4-6.5,15.4c0,11.7,9.6,21.3,21.3,21.3c4.4,0,8.7-1.4,12.2-3.8C402.5,107.6,393.6,96.6,383.3,86.6z"/>
	<path d="M371.6,176.2c-0.5,0-1.2,0-1.7-0.2c-0.5-0.2-1-0.3-1.6-0.5c-0.5-0.2-1-0.5-1.6-0.9c-0.5-0.3-0.9-0.7-1.4-1
		c-0.3-0.3-0.7-0.9-1-1.4c-0.3-0.5-0.5-1-0.9-1.6c-0.2-0.5-0.3-1-0.5-1.6c-0.2-0.5-0.2-1-0.2-1.7c0-0.5,0-1.2,0.2-1.7
		c0.2-0.5,0.3-1,0.5-1.6c0.2-0.5,0.5-1,0.9-1.6c0.3-0.5,0.7-0.9,1-1.2c0.3-0.3,0.9-0.7,1.4-1c0.5-0.3,1-0.5,1.6-0.9
		c0.5-0.2,1-0.3,1.6-0.5c2.8-0.5,5.8,0.3,7.9,2.4c1.6,1.6,2.6,3.8,2.6,6.1c0,0.5,0,1.2-0.2,1.7c-0.2,0.5-0.3,1-0.5,1.6
		c-0.2,0.5-0.5,1-0.9,1.6c-0.3,0.5-0.7,0.9-1,1.4C376.1,175.3,373.9,176.2,371.6,176.2z"/>
	<path d="M410.6,225.8c-12.6,0-22.9-10.3-22.9-22.9S398,180,410.6,180s22.9,10.3,22.9,22.9S423.1,225.8,410.6,225.8z M410.6,197.5
		c-3,0-5.4,2.4-5.4,5.4c0,3,2.4,5.4,5.4,5.4c3,0,5.4-2.4,5.4-5.4C416,199.8,413.5,197.5,410.6,197.5z"/>
	<path d="M64.3,337.3c-4.5,0-8.9-0.9-13.3-2.4c-2.6-1-4.5-3.1-5.2-5.8c-3.5-12.1-5.2-24.5-5.2-36.9c0-5.9,0.3-11.9,1.2-17.8
		c0.3-2.8,1.9-5.1,4.4-6.5c5.6-3.1,11.7-4.7,18-4.7c20.4,0,37,16.6,37,37C101.2,320.7,84.8,337.3,64.3,337.3L64.3,337.3z
		 M61.5,319.4c1,0.2,1.9,0.2,3,0.2c10.8,0,19.6-8.7,19.6-19.6c0-10.8-8.7-19.6-19.6-19.6c-1.9,0-3.8,0.3-5.8,0.9
		c-0.3,3.7-0.5,7.2-0.5,10.7C58.2,301.3,59.3,310.5,61.5,319.4z"/>
	<path d="M184.7,162.1c-14.5,0-26.4-11.9-26.4-26.4s11.9-26.4,26.4-26.4c14.5,0,26.4,11.9,26.4,26.4S199.2,162.1,184.7,162.1z
		 M184.7,126.6c-4.9,0-8.9,4-8.9,8.9c0,4.9,4,8.9,8.9,8.9c4.9,0,8.9-4,8.9-8.9C193.6,130.6,189.6,126.6,184.7,126.6z"/>
	<path d="M191.7,80.7c-17.5,0-31.8-14.1-31.8-31.8c0-0.2,0-0.7,0-0.9c0-3.1,1.9-5.8,4.7-7.3c13.1-6.8,27.1-12.2,41.6-16.1
		c3.1-0.9,6.3,0.2,8.6,2.4c5.6,5.9,8.7,13.6,8.7,21.8C223.5,66.5,209.3,80.7,191.7,80.7L191.7,80.7z M178.2,53.4
		c1.9,5.6,7.2,9.8,13.5,9.8c7.9,0,14.3-6.5,14.3-14.3c0-1.9-0.3-3.8-1.2-5.8C195.7,45.9,186.8,49.4,178.2,53.4z"/>
	<path d="M115.7,140.7c-11.7,0-22.7-5.2-30.2-14.3c-2.3-2.8-2.6-6.8-0.7-10c10.5-17.8,23.8-33.7,39.1-47.5c2.8-2.4,6.6-3,10-1.2
		c12.8,6.8,20.6,19.9,20.6,34.2C154.5,123.5,137,140.7,115.7,140.7z M103.5,119.4c3.5,2.4,7.9,3.8,12.2,3.8
		c11.7,0,21.3-9.6,21.3-21.3c0-5.9-2.4-11.4-6.5-15.4C120.2,96.6,111.1,107.6,103.5,119.4z"/>
	<path d="M142.2,176.2c-0.5,0-1,0-1.7-0.2c-0.5-0.2-1-0.3-1.6-0.5c-0.5-0.2-1-0.5-1.6-0.9c-0.5-0.3-0.9-0.7-1.4-1
		c-0.3-0.3-0.7-0.9-1-1.4c-0.3-0.5-0.5-1-0.9-1.6c-0.2-0.5-0.3-1-0.5-1.6c-0.2-0.5-0.2-1-0.2-1.7c0-0.5,0-1,0.2-1.7
		c0.2-0.5,0.3-1,0.5-1.6c0.2-0.5,0.5-1,0.9-1.6c0.3-0.5,0.7-0.9,1-1.4c0.3-0.3,0.9-0.7,1.4-1c0.5-0.3,1-0.5,1.6-0.9
		c0.5-0.2,1-0.3,1.6-0.5c2.8-0.5,5.9,0.3,7.9,2.4c0.3,0.3,0.7,0.9,1,1.4c0.3,0.5,0.5,1,0.9,1.6c0.2,0.5,0.3,1,0.5,1.6
		c0.2,0.5,0.2,1.2,0.2,1.7s0,1.2-0.2,1.7c-0.2,0.5-0.3,1-0.5,1.6c-0.2,0.5-0.5,1-0.9,1.6c-0.3,0.5-0.7,0.9-1,1.4
		C146.8,175.3,144.5,176.2,142.2,176.2z"/>
	<path d="M103.3,225.8c-12.6,0-22.9-10.3-22.9-22.9S90.7,180,103.3,180s22.9,10.3,22.9,22.9S115.9,225.8,103.3,225.8z M103.3,197.5
		c-3,0-5.4,2.4-5.4,5.4c0,3,2.4,5.4,5.4,5.4c3,0,5.4-2.4,5.4-5.4C108.7,199.8,106.3,197.5,103.3,197.5z"/>
	<path d="M434.8,157c-3.5,0-6.8-2.1-8-5.6c-10-25.3-25.9-48.6-45.8-67.1c-3.3-3-3.7-8-1-11.5c10.8-14.7,28.3-23.4,46.5-23.4
		c32,0,58,26,58,58c0,12.6-4,24.8-11.7,34.9c-0.5,0.7-1.2,1.4-2.1,1.9c-10.3,7-22.2,11.4-34.6,12.9C435.5,157,435.2,157,434.8,157z
		 M398.9,77.5c17.3,17.6,31.4,38.4,41.4,61c6.8-1.6,13.3-4.4,19.2-8c4.9-6.8,7.3-14.8,7.3-23.2c0-22.4-18.2-40.5-40.5-40.5
		C416,66.9,406.2,70.7,398.9,77.5L398.9,77.5z M465.6,136.9L465.6,136.9L465.6,136.9z"/>
	<path d="M78.8,157.3c-0.3,0-0.5,0-0.9,0c-13.1-1.2-25.7-5.8-36.5-13.1c-0.9-0.5-1.6-1.2-2.1-1.9c-7.7-10.1-11.7-22.2-11.7-34.9
		c0-32,26-58,58-58c18.9,0,36.5,9.3,47.3,24.6c2.4,3.5,1.9,8.4-1.2,11.4c-19.6,18.5-35.1,41.4-44.9,66.4
		C85.6,155.1,82.5,157.3,78.8,157.3z M52.5,130.4c6.3,4,13.5,7,21,8.4c9.6-22.4,23.6-43,40.5-60.4c-7.5-7.3-17.6-11.7-28.3-11.7
		c-22.4,0-40.5,18.2-40.5,40.5C45.1,115.6,47.7,123.6,52.5,130.4L52.5,130.4z"/>
</g>
</svg>
